<svg xmlns="http://www.w3.org/2000/svg" xmlns:xlink="http://www.w3.org/1999/xlink" fill="none" viewBox="0 0 316 150">
  <defs>
    <path id="a" fill="#C1A5CB" fill-rule="evenodd" d="M201.218.236081c16.442.550568 17.195.683345 19.477 3.433899 2.571 3.09852 2.704 3.43848 2.704 6.86782 0 4.456-.307 5.2069-3.394 8.2837l-3.119 3.11-52.916.0045-52.915.0058-3.406 3.4728c-4.639 4.7307-4.697 11.088-.141 15.3003 2.83 2.6155 4.356 3.0344 11.455 3.1454 16.845.2633 19.049 1.0268 22.04 7.6416 1.487 3.2885 1.442 4.2672-.353 7.7652-1.131 2.2011-3.1 4.5202-4.377 5.1508-3.218 1.5922-125.6727 1.7548-129.9326.1717C2.57584 63.192-.887819 55.9465.204398 51.7572c.408652-1.567 2.590632-3.9994 4.849362-5.4061 3.87477-2.4141 5.35704-2.5572 26.22684-2.5308 13.4459.0171 23.0938-.4545 24.6046-1.2008 6.2066-3.071 7.1093-12.196 1.7188-17.3961-2.8915-2.7906-4.3119-3.2416-10.246-3.2553-9.3991-.0206-11.69-.7578-14.1035-4.5351-2.8048-4.3873-2.5547-10.27418.5832-13.76302L36.4123.808397 110.264.236081c40.619-.3147745 81.549-.3147745 90.954 0ZM286.899 83.8069c12.26.3216 23.19.9935 24.29 1.4937 2.562 1.1653 4.811 5.7301 4.811 9.7695 0 2.0695-1.384 4.3747-4.025 6.6999l-4.024 3.545-21.962.043c-24.085.047-27.599.774-30.465 6.301-2.081 4.014-1.016 10.018 2.264 12.762 1.586 1.326 5.565 2.307 11.565 2.85 10.822.98 11.68 1.381 14.018 6.553 1.393 3.081 1.492 4.804.447 7.734-2.901 8.125.576 7.715-65.81 7.749l-59.744.03-3.482-3.601c-4.598-4.757-4.556-9.284.13-14.135l3.611-3.738 23.81-.573 23.811-.572 2.497-3.094c2.905-3.6 3.8-8.748 1.891-10.875-.733-.816-.904-1.484-.38-1.484.522 0-.553-1.287-2.389-2.861-2.541-2.177-4.734-2.878-9.16-2.929-3.2-.037-33.695-.049-67.77-.029-59.2048.036-62.126-.06-65.9079-2.187-4.7416-2.665-6.0827-6.6952-4.1807-12.5637.982-3.0276 2.4594-4.7411 4.8915-5.6728 3.7138-1.4217 177.1201-2.374 221.2631-1.2156Z" clip-rule="evenodd"/>
  </defs>
  <use xlink:href="#a" fill-rule="evenodd" clip-rule="evenodd"/>
  <use xlink:href="#a" fill-rule="evenodd" clip-rule="evenodd"/>
  <use xlink:href="#a" fill-rule="evenodd" clip-rule="evenodd"/>
</svg>
