<svg xmlns="http://www.w3.org/2000/svg" fill="none" viewBox="0 0 256 131">
  <path fill="#866A91" fill-rule="evenodd" d="M92.69.206717C79.413.688805 78.805.805067 76.962 3.2135c-2.076 2.71313-2.184 3.0108-2.184 6.01358 0 3.90182.248 4.55932 2.741 7.25342l2.519 2.7231 42.731.004 42.731.005 2.75 3.0409c3.746 4.1423 3.793 9.7089.114 13.3972-2.285 2.2902-3.518 2.657-9.25 2.7542-13.603.2306-15.383.8991-17.798 6.6911-1.201 2.8795-1.165 3.7365.285 6.7994.913 1.9273 2.503 3.9579 3.534 4.5102 2.599 1.3941 101.485 1.5364 104.925.1503 3.04-1.2237 5.837-7.5681 4.955-11.2363-.33-1.3721-2.092-3.502-3.916-4.7337-3.129-2.1138-4.326-2.2391-21.179-2.216-10.858.015-18.649-.3979-19.869-1.0514-5.012-2.6891-5.741-10.6791-1.388-15.2324 2.335-2.4435 3.482-2.8384 8.274-2.8504 7.59-.0181 9.44-.6635 11.389-3.971 2.265-3.8417 2.063-8.9963-.471-12.0512L225.776.707848 166.138.206717c-32.801-.2756225-65.853-.2756225-73.448 0ZM23.5 73.3829c-9.9.2816-18.727.87-19.615 1.308C1.816 75.7112 0 79.7082 0 83.2452c0 1.8121 1.118 3.8306 3.25 5.8662l3.25 3.104 17.735.0381c19.449.0411 22.287.6775 24.601 5.5175 1.681 3.515.821 8.772-1.828 11.174-1.281 1.162-4.494 2.021-9.339 2.496-8.739.858-9.432 1.21-11.32 5.738-1.125 2.698-1.205 4.206-.361 6.772 2.343 7.114-.465 6.755 53.144 6.785l48.245.026 2.812-3.153c3.713-4.165 3.679-8.129-.105-12.377l-2.916-3.273-19.228-.501-19.228-.501-2.016-2.709c-2.346-3.153-3.069-7.661-1.527-9.5229.592-.7146.73-1.2989.307-1.2989-.422 0 .446-1.1276 1.929-2.5057 2.052-1.9063 3.823-2.5197 7.397-2.5648 2.584-.032 27.21-.0431 54.726-.025 47.81.031 50.169-.0531 53.223-1.9153 3.829-2.3333 4.912-5.8623 3.376-11.0009-.793-2.651-1.986-4.1514-3.95-4.9672-2.999-1.2448-143.03-2.0787-178.677-1.0644Z" clip-rule="evenodd"/>
</svg>
