<svg xmlns="http://www.w3.org/2000/svg" fill="none" viewBox="0 0 434 228">
  <path fill="#9B84A3" fill-rule="evenodd" d="M157.643.359666c-22.581.838784-23.615 1.041074-26.749 5.231514-3.531 4.72052-3.715 5.23852-3.715 10.46302 0 6.7888.422 7.9327 4.662 12.6201l4.284 4.738 72.676.007 72.675.0087 4.677 5.2908c6.371 7.2073 6.451 16.8926.194 23.3099-3.887 3.9847-5.984 4.6229-15.732 4.7921-23.136.401-26.163 1.5642-30.27 11.6418-2.043 5.0101-1.982 6.501.484 11.8302 1.553 3.3534 4.257 6.8864 6.011 7.8473 4.42 2.4259 172.601 2.6729 178.452.2615 5.17-2.1292 9.927-13.1677 8.427-19.5501-.561-2.3873-3.558-6.093-6.66-8.2361-5.322-3.6778-7.357-3.8958-36.02-3.8557-18.467.0262-31.718-.6923-33.793-1.8293-8.524-4.6787-9.764-18.5805-2.36-26.5028 3.971-4.2515 5.922-4.9385 14.072-4.9595 12.908-.0313 16.055-1.1544 19.37-6.909 3.852-6.6842 3.508-15.6527-.801-20.96792l-3.536-4.3596-101.43-.871914c-55.787-.479555-112-.479555-124.918 0ZM39.9679 127.679c-16.8376.49-31.85018 1.514-33.36045 2.276C3.08858 131.73 0 138.684 0 144.838c0 3.153 1.90145 6.665 5.52747 10.207l5.52743 5.401 30.163.066c33.0781.071 37.9048 1.179 41.8404 9.6 2.859 6.115 1.3963 15.262-3.109 19.442-2.1787 2.021-7.6432 3.515-15.8834 4.342-14.8629 1.493-16.0416 2.105-19.2526 9.983-1.9133 4.695-2.0494 7.319-.614 11.783 3.9849 12.378-.7908 11.754 90.3857 11.806l82.053.046 4.782-5.487c6.315-7.247 6.257-14.144-.178-21.534l-4.96-5.696-32.702-.871-32.702-.872-3.429-4.714c-3.99-5.484-5.22-13.328-2.597-16.568 1.007-1.244 1.242-2.26.522-2.26-.718 0 .759-1.962 3.281-4.36 3.49-3.317 6.502-4.384 12.58-4.462 4.395-.056 46.278-.075 93.076-.044 81.314.054 85.326-.092 90.52-3.332 6.512-4.06 8.354-10.2 5.741-19.141-1.348-4.612-3.377-7.223-6.718-8.642-5.1-2.166-243.259-3.617-303.8861-1.852Z" clip-rule="evenodd"/>
</svg>
