<svg xmlns="http://www.w3.org/2000/svg" xmlns:xlink="http://www.w3.org/1999/xlink" fill="none" viewBox="0 0 338 219">
  <defs>
    <path id="a" fill="#C1A5CB" fill-rule="evenodd" d="M215.227.345406c17.586.805534 18.391.999794 20.833 5.024094 2.749 4.53341 2.892 5.0308 2.892 10.0482 0 6.5196-.328 7.6182-3.63 12.1198l-3.337 4.5501-56.599.0067-56.6.0084-3.642 5.081c-4.962 6.9216-5.024 16.2228-.151 22.3857 3.026 3.8267 4.659 4.4396 12.252 4.6021 18.018.3852 20.375 1.5022 23.574 11.1803 1.591 4.8114 1.543 6.2432-.377 11.3611-1.21 3.2205-3.316 6.6134-4.681 7.5362-3.443 2.3295-134.4227 2.5673-138.97917.2512C2.75518 92.4555-.949619 81.8546.218638 75.7252c.437103-2.2926 2.770992-5.8514 5.186982-7.9096 4.14453-3.5319 5.72998-3.7412 28.05268-3.7027 14.3821.0251 24.7017-.6649 26.3176-1.7568 6.6387-4.4932 7.6043-17.8439 1.8385-25.452-3.0928-4.083-4.6121-4.7428-10.9594-4.7629-10.0533-.0301-12.5037-1.1086-15.0853-6.6351-3.0001-6.4191-2.7326-15.0321.6239-20.1366l2.7537-4.18674L117.941.345406c43.447-.460541 87.226-.460541 97.286 0ZM306.873 122.617c13.113.47 24.805 1.453 25.981 2.185 2.741 1.705 5.146 8.384 5.146 14.294 0 3.028-1.481 6.4-4.305 9.802l-4.305 5.186-23.491.064c-25.761.069-29.52 1.132-32.585 9.219-2.227 5.873-1.087 14.657 2.421 18.671 1.697 1.941 5.953 3.377 12.37 4.17 11.576 1.434 12.494 2.022 14.994 9.588 1.49 4.508 1.596 7.029.478 11.316-3.103 11.887.616 11.287-70.392 11.338l-63.903.043-3.724-5.268c-4.919-6.96-4.874-13.584.139-20.681l3.862-5.47 25.469-.837 25.468-.837 2.67-4.527c3.108-5.267 4.065-12.8 2.023-15.911-.784-1.195-.967-2.171-.407-2.171.559 0-.59-1.884-2.555-4.187-2.718-3.185-5.063-4.21-9.797-4.285-3.423-.054-36.042-.072-72.488-.042-63.327.052-66.4516-.089-70.4968-3.2-5.0717-3.899-6.5062-9.796-4.4717-18.382 1.0504-4.429 2.6306-6.937 5.232-8.3 3.9723-2.08 189.4515-3.473 236.6675-1.778Z" clip-rule="evenodd"/>
  </defs>
  <use xlink:href="#a" fill-rule="evenodd" clip-rule="evenodd"/>
  <use xlink:href="#a" fill-rule="evenodd" clip-rule="evenodd"/>
  <path fill="#B6A1BD" fill-rule="evenodd" d="M215.227.345406c17.586.805534 18.391.999794 20.833 5.024094 2.749 4.53341 2.892 5.0308 2.892 10.0482 0 6.5196-.328 7.6182-3.63 12.1198l-3.337 4.5501-56.599.0067-56.6.0084-3.642 5.081c-4.962 6.9216-5.024 16.2228-.151 22.3857 3.026 3.8267 4.659 4.4396 12.252 4.6021 18.018.3852 20.375 1.5022 23.574 11.1803 1.591 4.8114 1.543 6.2432-.377 11.3611-1.21 3.2205-3.316 6.6134-4.681 7.5362-3.443 2.3295-134.4227 2.5673-138.97917.2512C2.75518 92.4555-.949619 81.8546.218638 75.7252c.437103-2.2926 2.770992-5.8514 5.186982-7.9096 4.14453-3.5319 5.72998-3.7412 28.05268-3.7027 14.3821.0251 24.7017-.6649 26.3176-1.7568 6.6387-4.4932 7.6043-17.8439 1.8385-25.452-3.0928-4.083-4.6121-4.7428-10.9594-4.7629-10.0533-.0301-12.5037-1.1086-15.0853-6.6351-3.0001-6.4191-2.7326-15.0321.6239-20.1366l2.7537-4.18674L117.941.345406c43.447-.460541 87.226-.460541 97.286 0ZM306.873 122.617c13.113.47 24.805 1.453 25.981 2.185 2.741 1.705 5.146 8.384 5.146 14.294 0 3.028-1.481 6.4-4.305 9.802l-4.305 5.186-23.491.064c-25.761.069-29.52 1.132-32.585 9.219-2.227 5.873-1.087 14.657 2.421 18.671 1.697 1.941 5.953 3.377 12.37 4.17 11.576 1.434 12.494 2.022 14.994 9.588 1.49 4.508 1.596 7.029.478 11.316-3.103 11.887.616 11.287-70.392 11.338l-63.903.043-3.724-5.268c-4.919-6.96-4.874-13.584.139-20.681l3.862-5.47 25.469-.837 25.468-.837 2.67-4.527c3.108-5.267 4.065-12.8 2.023-15.911-.784-1.195-.967-2.171-.407-2.171.559 0-.59-1.884-2.555-4.187-2.718-3.185-5.063-4.21-9.797-4.285-3.423-.054-36.042-.072-72.488-.042-63.327.052-66.4516-.089-70.4968-3.2-5.0717-3.899-6.5062-9.796-4.4717-18.382 1.0504-4.429 2.6306-6.937 5.232-8.3 3.9723-2.08 189.4515-3.473 236.6675-1.778Z" clip-rule="evenodd"/>
</svg>
