<svg xmlns="http://www.w3.org/2000/svg" fill="none" viewBox="0 0 310 176">
  <path fill="#681E82" fill-rule="evenodd" d="M118.435 11.6426C104.162 14.32 91.5347 20.738 85.8633 28.1972c-2.7353 3.5984-8.3234 14.6984-9.6468 19.1636-.5979 2.017-1.3256 3.6821-1.617 3.6999-.2914.0178-2.1954-.6183-4.2306-1.4136-7.079-2.7659-12.6575-1.1014-22.5328 6.723-8.0818 6.4031-12.5553 11.7263-14.9839 17.8269-1.9217 4.8262-2.0429 5.6389-1.8269 12.2393.1275 3.8883-.034 7.9889-.3586 9.1124-1.2626 4.3658-6.6885 13.2933-9.8335 16.1803-4.6207 4.242-7.8032 8.413-10.0425 13.164-3.10641 6.59-3.88148 10.59-3.03936 15.677 1.59554 9.633 4.53586 15.071 10.39666 19.228 6.3534 4.505 18.9268 10.343 24.08 11.18 5.0417.819 16.9138 1.421 21.951 1.114 6.5355-.4 20.6359-4.921 23.9485-7.679 1.1682-.973 1.844-.9 7.4428.814 12.3717 3.787 24.9007 2.794 32.5117-2.575 4.409-3.11 13.956-5.385 29.113-6.937 13.341-1.365 14.817-1.648 22.466-4.289 9.064-3.131 15.151-6.41 18.836-10.147l2.433-2.468 9.658-.669 9.657-.668 8.077-3.613c4.443-1.987 12.685-5.783 18.315-8.437l10.237-4.824 7.317-.445c8.673-.526 12.578.253 20.583 4.109 6.645 3.199 11.458 6.2 15.067 9.391 3.416 3.021 5.758 3.853 7.234 2.571 1.001-.868.994-1.363-.087-6.606-1.631-7.912-6.436-16.399-14.971-26.45-4.911-5.783-8.999-8.2147-22.807-13.5659-21.03-8.1493-22.666-8.963-27.644-13.7555-2.449-2.3566-5.776-6.3557-7.395-8.8861-1.618-2.531-3.845-5.3045-4.951-6.1633-2.186-1.6998-7.915-4.2846-10.736-4.8446-1.382-.2748-2.507-1.5605-5.135-5.8712-1.852-3.0358-4.788-6.8435-6.524-8.4611-3.729-3.4742-13.723-8.1522-18.9-8.8479-5.204-.698-12.445-.0248-19.122 1.7784-6.149 1.6599-6.921 1.6817-7.014.1944-.147-2.3641-5.555-10.4298-9.841-14.678-9.151-9.0671-18.099-11.31747-33.513-8.4266Zm18.921 7.9718c5.386 1.7102 8.895 4.1278 12.134 8.3597l2.848 3.7214.628 10.1122c.561 9.0602.502 10.3975-.571 12.8603-2.049 4.7014-6.062 10.0113-12.005 15.8804-8.279 8.177-9.589 8.8296-18.893 9.4088-9.227.5745-11.24-.1112-13.394-4.5639-3.922-8.109-2.269-18.3987 3.493-21.7319 1.857-1.0739 2.664-1.1681 5.815-.675 2.229.3487 4.587 1.2748 6.036 2.3701 2.21 1.6722 2.382 2.037 2.45 5.2079.083 3.8295.657 4.1857 2.422 1.5041 1.95-2.9612 1.382-6.0527-1.621-8.8162-2.736-2.5196-8.782-4.8383-12.086-4.6364-5.367.3279-10.595 6.1955-12.086 13.5644-1.544 7.6331 2.216 18.1291 7.351 20.5149 5.623 2.6141 19.494 1.4168 24.794-2.1397 4.389-2.9442 14.033-12.84 17.319-17.7696 3.593-5.3905 5.046-9.283 5.288-14.1705l.181-3.653 10.245-2.5516c9.533-2.3744 10.59-2.5152 15.197-2.0235 16.887 1.8021 25.6 9.4077 25.63 22.3717.013 5.9179-1.798 9.1822-6.809 12.2762-3.092 1.9086-4.441 2.302-9.79 2.8556-3.634.3759-7.129.3834-8.439.0187-3.119-.8689-5.6-3.5011-6.794-7.2079-.864-2.6848-.889-3.4271-.169-4.9967 1.999-4.36 7.009-3.5044 11.246 1.9207 3.025 3.8725 4.065 3.9855 3.371.3679-.994-5.1804-6.12-9.1479-11.4-8.8253-4.839.2957-8.157 5.2921-7.063 10.6357 1.16 5.6672 3.653 9.1789 8.035 11.3183 1.794.8763 3.666 1.0027 9.548.646 8.269-.5019 11.219-1.4152 15.446-4.7837 3.334-2.6557 6.405-8.2183 6.807-12.3316.238-2.4298.392-2.6124 1.976-2.3541.946.1543 3.872 1.2015 6.504 2.3269 4.209 1.7996 5.017 2.4371 6.717 5.2929 5.034 8.4632 12.493 15.532 19.988 18.9454 1.901.8657 4.802 2.3941 6.445 3.3973 2.943 1.796 8.022 3.63 15.028 5.4259 6.493 1.6653 12.306 4.8808 16.312 9.0238 3.945 4.08 11.777 15.02 10.797 15.08-.317.019-3.099-1.313-6.182-2.962-3.083-1.649-8.343-3.753-11.688-4.675-5.332-1.471-7.064-1.632-14.043-1.309l-7.96.368-10.275 4.224c-5.651 2.324-12.638 5.502-15.526 7.063-2.889 1.561-6.651 3.445-8.361 4.189-3.371 1.464-12.847 2.844-16.268 2.369-3.928-.545-4.094-.939-2.173-5.167.957-2.108 1.683-4.769 1.612-5.913-.262-4.195-7.814-17.056-12.823-21.8329-3.143-2.9978-8.606-6.346-11.922-7.3079-7.05-2.044-14.526 2.1973-18.822 10.6768-3.292 6.5-3.855 9.171-3.139 14.896 1.011 8.074 4.74 12.79 12.162 15.38 4.772 1.666 7.891 1.444 10.715-.76 1.984-1.55 2.573-3.034 2.988-7.537.383-4.147-.562-6.996-3.097-9.343-3.092-2.863-3.509-.784-.774 3.86 2.155 3.659 2.194 4.032.782 7.455-1.97 4.776-4.916 5.461-11.264 2.62-6.724-3.01-8.891-7.346-8.507-17.018.177-4.481.495-5.173 5.372-11.7212 4.023-5.4028 9.762-7.033 15.343-4.3594 6.527 3.1274 10.177 6.8426 16.105 16.3906 2.011 3.24 2.426 4.487 2.558 7.701.204 4.946-1.394 8.324-6.794 14.359-5.573 6.231-8.837 8.349-17.311 11.231-6.688 2.277-8.165 2.532-19.322 3.343-6.644.483-13.213 1.148-14.597 1.478-7.015 1.675-10.139 2.709-18.147 6.01-8.021 3.306-9.226 3.623-15.081 3.967-6.37.374-10.8808-.297-15.0666-2.243-1.1313-.525-2.0719-1.188-2.0896-1.472-.0176-.284 1.8867-2.387 4.2324-4.674 11.8608-11.565 19.5118-28.14 18.7738-40.668-.291-4.917-.555-5.791-3.325-10.9623-5.68-10.6055-11.602-14.535-21.7838-14.4533-3.3092.0263-7.1378.4816-9.1926 1.0934-9.1082 2.7136-18.2397 10.4517-21.0346 17.8272-1.2554 3.314-1.3733 4.485-.8944 8.869.9514 8.705 5.3901 14.39 12.7436 16.323 9.7552 2.565 25.6294-5.979 26.5923-14.313.5944-5.147-3.1145-10.855-8.5252-13.118-2.993-1.253-9.3476-1.403-9.2739-.221.0212.34 1.7336 1.295 3.8047 2.122 6.3429 2.535 6.9679 2.91 8.6682 5.208 3.3742 4.561 1.3075 9.613-5.4435 13.306-10.3443 5.66-19.0262 4.495-23.1275-3.102-2.2506-4.168-2.6897-6.93-1.7834-11.212 2.0767-9.8092 13.5464-18.1009 26.3234-19.0281 9.2209-.6697 14.5167 2.7556 19.7757 12.7891 4.218 8.048 4.062 13.743-.71 25.966-5.396 13.819-19.4567 28.413-33.0244 34.276-4.3554 1.882-5.9281 2.205-12.9107 2.655-4.3734.281-9.55.226-11.5037-.123-1.9538-.349-5.4453-.768-7.7593-.932-3.4359-.245-5.5731-.996-11.6681-4.103-11.9828-6.107-16.4846-11.616-16.8536-20.619-.2861-6.977 2.555-12.966 8.7667-18.479 8.0211-7.12 13.5281-15.053 15.0132-21.6276.5237-2.3168 1.1053-7.3815 1.293-11.2556.5275-10.8704 1.3236-13.8065 4.886-18.0193 3.2411-3.8339 8.597-8.4037 13.0628-11.146 3.7276-2.2892 9.1467-2.2698 14.2621.0516 3.569 1.6192 4.7422 2.9809 5.4737 6.3554.7207 3.325 3.0638-.0902 2.8137-4.1014-.1509-2.4214 2.9728-12.6579 5.3744-17.613 2.9653-6.1173 4.9894-8.7887 9.5523-12.6064 10.2799-8.6009 16.1509-10.8559 29.7389-11.4253 6.896-.2882 9.338-.1251 12.327.824Z" clip-rule="evenodd"/>
  <path fill="#F5EDE3" d="M137.356 19.6144c5.386 1.7102 8.895 4.1278 12.134 8.3597l2.848 3.7214.628 10.1122c.561 9.0602.502 10.3975-.571 12.8603-2.049 4.7014-6.062 10.0113-12.005 15.8804-8.279 8.177-9.589 8.8296-18.893 9.4088-9.227.5745-11.24-.1112-13.394-4.5639-3.922-8.109-2.269-18.3987 3.493-21.7319 1.857-1.0739 2.664-1.1681 5.815-.675 2.229.3487 4.587 1.2748 6.036 2.3701 2.21 1.6722 2.382 2.037 2.45 5.2079.083 3.8295.657 4.1857 2.422 1.5041 1.95-2.9612 1.382-6.0527-1.621-8.8162-2.736-2.5196-8.782-4.8383-12.086-4.6364-5.367.3279-10.595 6.1955-12.086 13.5644-1.544 7.6331 2.216 18.1291 7.351 20.5149 5.623 2.6141 19.494 1.4168 24.794-2.1397 4.389-2.9442 14.033-12.84 17.319-17.7696 3.593-5.3905 5.046-9.283 5.288-14.1705l.181-3.653 10.245-2.5516c9.533-2.3744 10.59-2.5152 15.197-2.0235 16.887 1.8021 25.6 9.4077 25.63 22.3717.013 5.9179-1.798 9.1822-6.809 12.2762-3.092 1.9086-4.441 2.302-9.79 2.8556-3.634.3759-7.129.3834-8.439.0187-3.119-.8689-5.6-3.5011-6.794-7.2079-.864-2.6848-.889-3.4271-.169-4.9967 1.999-4.36 7.009-3.5044 11.246 1.9207 3.025 3.8725 4.065 3.9855 3.371.3679-.994-5.1804-6.12-9.1479-11.4-8.8253-4.839.2957-8.157 5.2921-7.063 10.6357 1.16 5.6672 3.653 9.1789 8.035 11.3183 1.794.8763 3.666 1.0027 9.548.646 8.269-.5019 11.219-1.4152 15.446-4.7837 3.334-2.6557 6.405-8.2183 6.807-12.3316.238-2.4298.392-2.6124 1.976-2.3541.946.1543 3.872 1.2015 6.504 2.3269 4.209 1.7996 5.017 2.4371 6.717 5.2929 5.034 8.4632 12.493 15.532 19.988 18.9454 1.901.8657 4.802 2.3941 6.445 3.3973 2.943 1.796 8.022 3.63 15.028 5.4259 6.493 1.6653 12.306 4.8808 16.312 9.0238 3.945 4.08 11.777 15.02 10.797 15.08-.317.019-3.099-1.313-6.182-2.962-3.083-1.649-8.343-3.753-11.688-4.675-5.332-1.471-7.064-1.632-14.043-1.309l-7.96.368-10.275 4.224c-5.651 2.324-12.638 5.502-15.526 7.063-2.889 1.561-6.651 3.445-8.361 4.189-3.371 1.464-12.847 2.844-16.268 2.369-3.928-.545-4.094-.939-2.173-5.167.957-2.108 1.683-4.769 1.612-5.913-.262-4.195-7.814-17.056-12.823-21.8329-3.143-2.9978-8.606-6.346-11.922-7.3079-7.05-2.044-14.526 2.1973-18.822 10.6768-3.292 6.5-3.855 9.171-3.139 14.896 1.011 8.074 4.74 12.79 12.162 15.38 4.772 1.666 7.891 1.444 10.715-.76 1.984-1.55 2.573-3.034 2.988-7.537.383-4.147-.562-6.996-3.097-9.343-3.092-2.863-3.509-.784-.774 3.86 2.155 3.659 2.194 4.032.782 7.455-1.97 4.776-4.916 5.461-11.264 2.62-6.724-3.01-8.891-7.346-8.507-17.018.177-4.481.495-5.173 5.372-11.7212 4.023-5.4028 9.762-7.033 15.343-4.3594 6.527 3.1274 10.177 6.8426 16.105 16.3906 2.011 3.24 2.426 4.487 2.558 7.701.204 4.946-1.394 8.324-6.794 14.359-5.573 6.231-8.837 8.349-17.311 11.231-6.688 2.277-8.165 2.532-19.322 3.343-6.644.483-13.213 1.148-14.597 1.478-7.015 1.675-10.139 2.709-18.147 6.01-8.021 3.306-9.226 3.623-15.081 3.967-6.37.374-10.8808-.297-15.0666-2.243-1.1313-.525-2.0719-1.188-2.0896-1.472-.0176-.284 1.8867-2.387 4.2324-4.674 11.8608-11.565 19.5118-28.14 18.7738-40.668-.291-4.917-.555-5.791-3.325-10.9623-5.68-10.6055-11.602-14.535-21.7838-14.4533-3.3092.0263-7.1378.4816-9.1926 1.0934-9.1082 2.7136-18.2397 10.4517-21.0346 17.8272-1.2554 3.314-1.3733 4.485-.8944 8.869.9514 8.705 5.3901 14.39 12.7436 16.323 9.7552 2.565 25.6294-5.979 26.5923-14.313.5944-5.147-3.1145-10.855-8.5252-13.118-2.993-1.253-9.3476-1.403-9.2739-.221.0212.34 1.7336 1.295 3.8047 2.122 6.3429 2.535 6.9679 2.91 8.6682 5.208 3.3742 4.561 1.3075 9.613-5.4435 13.306-10.3443 5.66-19.0262 4.495-23.1275-3.102-2.2506-4.168-2.6897-6.93-1.7834-11.212 2.0767-9.8092 13.5464-18.1009 26.3234-19.0281 9.2209-.6697 14.5167 2.7556 19.7757 12.7891 4.218 8.048 4.062 13.743-.71 25.966-5.396 13.819-19.4567 28.413-33.0244 34.276-4.3554 1.882-5.9281 2.205-12.9107 2.655-4.3734.281-9.55.226-11.5037-.123-1.9538-.349-5.4453-.768-7.7593-.932-3.4359-.245-5.5731-.996-11.6681-4.103-11.9828-6.107-16.4846-11.616-16.8536-20.619-.2861-6.977 2.555-12.966 8.7667-18.479 8.0211-7.12 13.5281-15.053 15.0132-21.6276.5237-2.3168 1.1053-7.3815 1.293-11.2556.5275-10.8704 1.3236-13.8065 4.886-18.0193 3.2411-3.8339 8.597-8.4037 13.0628-11.146 3.7276-2.2892 9.1467-2.2698 14.2621.0516 3.569 1.6192 4.7422 2.9809 5.4737 6.3554.7207 3.325 3.0638-.0902 2.8137-4.1014-.1509-2.4214 2.9728-12.6579 5.3744-17.613 2.9653-6.1173 4.9894-8.7887 9.5523-12.6064 10.2799-8.6009 16.1509-10.8559 29.7389-11.4253 6.896-.2882 9.338-.1251 12.327.824Z"/>
</svg>
