<svg xmlns="http://www.w3.org/2000/svg" fill="none" viewBox="0 0 300 158">
  <path fill="#681E82" fill-rule="evenodd" d="M181.376.58227c14.413 1.80182 27.415 7.43759 33.54 14.53673 2.954 3.4247 9.222 14.1628 10.821 18.5389.722 1.9767 1.552 3.5942 1.844 3.5942.292 0 2.152-.751 4.134-1.6689 6.894-3.1924 12.565-1.8713 22.909 5.336 8.464 5.8981 13.261 10.9384 16.064 16.8793 2.219 4.6998 2.39 5.5036 2.585 12.1047.115 3.8886.531 7.9716.925 9.0731 1.532 4.2806 7.503 12.8604 10.822 15.5501 4.876 3.9521 8.311 7.9206 10.842 12.5266 3.511 6.388 4.533 10.333 4.009 15.462-.993 9.712-3.589 15.319-9.181 19.825-6.061 4.884-18.247 11.477-23.338 12.628-4.981 1.125-16.793 2.45-21.84 2.45-6.548 0-20.903-3.653-24.381-6.204-1.226-.9-1.896-.785-7.378 1.267-12.113 4.534-24.68 4.307-32.61-.587-4.595-2.836-14.265-4.525-29.49-5.149-13.4-.549-14.891-.741-22.69-2.911-9.241-2.572-15.52-5.474-19.431-8.979l-2.583-2.315-9.68-.079-9.6804-.078-8.287-3.113c-4.5578-1.712-13.02-4.999-18.805-7.304l-10.518-4.191-7.3308.003c-8.6886.004-12.5375 1.019-20.2877 5.356-6.4333 3.599-11.051 6.887-14.45376 10.292-3.22171 3.224-5.50765 4.197-7.061136 3.008-1.052444-.806-1.076652-1.3-.323814-6.6 1.13595-7.995 5.4031-16.759 13.29741-27.312 4.5419-6.0716 8.4705-8.7479 21.9196-14.9311 20.4828-9.4163 22.0643-10.3283 26.7356-15.4153 2.2974-2.5014 5.3694-6.6959 6.8272-9.3202 1.4579-2.6249 3.5086-5.5289 4.5585-6.4535 2.0762-1.8299 7.6335-4.7592 10.4148-5.4903 1.3622-.3584 2.4045-1.7103 4.7599-6.1731 1.6593-3.143 4.3525-7.1225 5.9851-8.8429 3.5053-3.6951 13.1895-8.9737 18.3135-9.9837 5.15-1.0141 12.42-.7838 19.196.6088 6.24 1.2818 7.012 1.2564 7.012-.2337 0-2.3686 4.897-10.7488 8.91-15.2503 8.569-9.60793 17.36-12.39978 32.925-10.45443Zm-18.389 9.11056c-5.27 2.03547-8.621 4.66247-11.591 9.08387l-2.611 3.888.003 10.1313c.003 9.0772.145 10.4084 1.37 12.801 2.337 4.5676 6.673 9.6226 12.969 15.1182 8.773 7.6565 10.121 8.228 19.443 8.2386 9.246.0107 11.211-.7964 13.084-5.372 3.411-8.3328 1.12-18.5022-4.837-21.4776-1.921-.9587-2.732-1.0034-5.846-.3191-2.204.484-4.5 1.5521-5.878 2.7337-2.102 1.8038-2.251 2.1784-2.121 5.3474.156 3.8273-.395 4.2178-2.324 1.6489-2.131-2.8365-1.756-5.9568 1.069-8.8982 2.575-2.6817 8.464-5.3648 11.775-5.3648 5.377 0 10.96 5.5377 12.907 12.8017 2.016 7.5244-1.084 18.2298-6.06 20.9242-5.45 2.952-19.369 2.6029-24.88-.6235-4.564-2.6711-14.806-11.9599-18.392-16.6797-3.922-5.1611-5.614-8.9577-6.159-13.8211l-.408-3.635-10.385-1.922c-9.663-1.7884-10.726-1.8645-15.294-1.0928-16.743 2.8286-24.9662 10.9511-24.1897 23.8923.355 5.9074 2.3655 9.0551 7.5597 11.8376 3.206 1.7164 4.576 2.0268 9.949 2.2531 3.651.1536 7.14-.052 8.424-.496 3.059-1.0574 5.372-3.8359 6.333-7.6085.695-2.7324.674-3.4748-.142-4.9975-2.266-4.2299-7.214-3.0703-11.105 2.6029-2.779 4.0496-3.81 4.2258-3.342.5728.67-5.2312 5.539-9.5038 10.83-9.5038 4.848 0 8.47 4.7846 7.71 10.1847-.805 5.7272-3.074 9.3843-7.315 11.7869-1.736.9841-3.597 1.2244-9.49 1.2271-8.284.0033-11.285-.7284-15.7139-3.8327-3.4926-2.4473-6.9036-7.8121-7.5615-11.893-.3888-2.4107-.554-2.5836-2.1189-2.2291-.9339.2116-3.7897 1.4353-6.3465 2.7191-4.0887 2.0528-4.8562 2.7384-6.3746 5.6925-4.4979 8.7541-11.5029 16.2644-18.7719 20.1284-1.8435.98-4.6432 2.6824-6.2209 3.7839-2.8259 1.9721-7.7809 4.1123-14.6616 6.3321-6.3777 2.0581-11.9797 5.6213-15.7197 10.0013-3.6839 4.313-10.82085 15.71-9.8385 15.71.3174 0 3.0113-1.5 5.9857-3.334 2.975-1.833 8.0938-4.254 11.3748-5.379 5.231-1.793 6.9489-2.059 13.9348-2.163l7.9683-.117 10.518 3.589c5.785 1.975 12.9564 4.72 15.9365 6.102 2.9801 1.382 6.8527 3.034 8.6057 3.671 3.4556 1.256 12.9997 2.056 16.3842 1.373 3.887-.784 4.028-1.186 1.848-5.289-1.087-2.047-1.977-4.658-1.977-5.804 0-4.203 6.738-17.4998 11.44-22.5735 2.95-3.1837 8.194-6.8588 11.444-8.021 6.91-2.4701 14.636 1.3071 19.451 9.5084 3.691 6.2867 4.419 8.9191 4.06 14.6761-.507 8.121-3.935 13.055-11.182 16.093-4.659 1.953-7.786 1.923-10.742-.106-2.077-1.425-2.757-2.871-3.451-7.34-.641-4.116.125-7.017 2.51-9.514 2.908-3.046 3.453-.996 1.012 3.805-1.923 3.784-1.939 4.159-.317 7.489 2.264 4.647 5.247 5.151 11.406 1.928 6.524-3.414 8.417-7.874 7.432-17.505-.455-4.4604-.816-5.1327-6.09-11.3706-4.352-5.1471-10.182-6.4242-15.586-3.4154-6.32 3.5195-9.732 7.4503-15.055 17.341-1.805 3.358-2.141 4.627-2.073 7.843.104 4.949 1.909 8.223 7.674 13.918 5.95 5.879 9.34 7.793 17.977 10.154 6.817 1.864 8.307 2.029 19.493 2.158 6.661.076 13.259.339 14.662.585 7.105 1.244 10.288 2.086 18.486 4.891 8.211 2.811 9.434 3.054 15.299 3.04 6.381-.015 10.842-.96 14.898-3.157 1.097-.594 1.994-1.313 1.994-1.597 0-.284-2.031-2.268-4.515-4.407-12.558-10.82-21.226-26.897-21.268-39.4461-.016-4.9248.194-5.8133 2.637-11.144 5.009-10.9317 10.675-15.215 20.843-15.7544 3.304-.1756 7.154.0454 9.243.5307 9.26 2.153 18.855 9.3196 22.104 16.5108 1.459 3.2305 1.649 4.3921 1.444 8.7975-.408 8.7465-4.484 14.6905-11.704 17.0695-9.577 3.154-25.952-4.405-27.432-12.664-.913-5.1018 2.433-11.0247 7.693-13.6136 2.909-1.4326 9.242-1.9707 9.242-.7864 0 .3405-1.649 1.3986-3.665 2.3506-6.173 2.9167-6.774 3.3293-8.328 5.7266-3.084 4.7578-.707 9.6748 6.261 12.9488 10.677 5.019 19.27 3.326 22.891-4.507 1.987-4.297 2.253-7.0806 1.082-11.2991-2.683-9.664-14.647-17.2405-27.457-17.3867-9.245-.1061-14.318 3.6357-18.943 13.9713-3.708 8.2894-3.199 13.9645 2.325 25.8735 6.245 13.463 21.187 27.172 35.094 32.197 4.464 1.612 6.054 1.839 13.051 1.861 4.383.014 9.546-.356 11.475-.823 1.928-.468 5.387-1.099 7.686-1.404 3.414-.454 5.501-1.334 11.391-4.806 11.58-6.827 15.73-12.6 15.539-21.609-.149-6.981-3.357-12.785-9.9-17.908-8.449-6.6175-14.439-14.1999-16.331-20.6715-.666-2.2805-1.562-7.3001-1.99-11.1554-1.203-10.8176-2.18-13.6996-5.998-17.6871-3.474-3.629-9.104-7.8635-13.732-10.3282-3.863-2.0575-9.27-1.7077-14.232.9213-3.461 1.8338-4.547 3.2645-5.067 6.6772-.513 3.3626-3.064.0968-3.064-3.9221 0-2.426-3.755-12.4525-6.46-17.2518-3.34-5.9248-5.527-8.4677-10.319-11.9999-10.795-7.95759-16.795-9.8502-30.393-9.58984-6.901.13285-9.328.44461-12.252 1.57417Z" clip-rule="evenodd"/>
  <path fill="#F5EDE3" d="M162.987 9.69283c-5.27 2.03547-8.621 4.66247-11.591 9.08387l-2.611 3.888.003 10.1313c.003 9.0772.145 10.4084 1.37 12.801 2.337 4.5676 6.673 9.6226 12.969 15.1182 8.773 7.6565 10.121 8.228 19.443 8.2386 9.246.0107 11.211-.7964 13.084-5.372 3.411-8.3328 1.12-18.5022-4.837-21.4776-1.921-.9587-2.732-1.0034-5.846-.3191-2.204.484-4.5 1.5521-5.878 2.7337-2.102 1.8038-2.251 2.1784-2.121 5.3474.156 3.8273-.395 4.2178-2.324 1.6489-2.131-2.8365-1.756-5.9568 1.069-8.8982 2.575-2.6817 8.464-5.3648 11.775-5.3648 5.377 0 10.96 5.5377 12.907 12.8017 2.016 7.5244-1.084 18.2298-6.06 20.9242-5.45 2.952-19.369 2.6029-24.88-.6235-4.564-2.6711-14.806-11.9599-18.392-16.6797-3.922-5.1611-5.614-8.9577-6.159-13.8211l-.408-3.635-10.385-1.922c-9.663-1.7884-10.726-1.8645-15.294-1.0928-16.743 2.8286-24.9662 10.9511-24.1897 23.8923.355 5.9074 2.3655 9.0551 7.5597 11.8376 3.206 1.7164 4.576 2.0268 9.949 2.2531 3.651.1536 7.14-.052 8.424-.496 3.059-1.0574 5.372-3.8359 6.333-7.6085.695-2.7324.674-3.4748-.142-4.9975-2.266-4.2299-7.214-3.0703-11.105 2.6029-2.779 4.0496-3.81 4.2258-3.342.5728.67-5.2312 5.539-9.5038 10.83-9.5038 4.848 0 8.47 4.7846 7.71 10.1847-.805 5.7272-3.074 9.3843-7.315 11.7869-1.736.9841-3.597 1.2244-9.49 1.2271-8.284.0033-11.285-.7284-15.7139-3.8327-3.4926-2.4473-6.9036-7.8121-7.5615-11.893-.3888-2.4107-.554-2.5836-2.1189-2.2291-.9339.2116-3.7897 1.4353-6.3465 2.7191-4.0887 2.0528-4.8562 2.7384-6.3746 5.6925-4.4979 8.7541-11.5029 16.2644-18.7719 20.1284-1.8435.98-4.6432 2.6824-6.2209 3.7839-2.8259 1.9721-7.7809 4.1123-14.6616 6.3321-6.3777 2.0581-11.9797 5.6213-15.7197 10.0013-3.6839 4.313-10.82085 15.71-9.8385 15.71.3174 0 3.0113-1.5 5.9857-3.334 2.975-1.833 8.0938-4.254 11.3748-5.379 5.231-1.793 6.9489-2.059 13.9348-2.163l7.9683-.117 10.518 3.589c5.785 1.975 12.9564 4.72 15.9365 6.102 2.9801 1.382 6.8527 3.034 8.6057 3.671 3.4556 1.256 12.9997 2.056 16.3842 1.373 3.887-.784 4.028-1.186 1.848-5.289-1.087-2.047-1.977-4.658-1.977-5.804 0-4.203 6.738-17.4998 11.44-22.5735 2.95-3.1837 8.194-6.8588 11.444-8.021 6.91-2.4701 14.636 1.3071 19.451 9.5084 3.691 6.2867 4.419 8.9191 4.06 14.6761-.507 8.121-3.935 13.055-11.182 16.093-4.659 1.953-7.786 1.923-10.742-.106-2.077-1.425-2.757-2.871-3.451-7.34-.641-4.116.125-7.017 2.51-9.514 2.908-3.046 3.453-.996 1.012 3.805-1.923 3.784-1.939 4.159-.317 7.489 2.264 4.647 5.247 5.151 11.406 1.928 6.524-3.414 8.417-7.874 7.432-17.505-.455-4.4604-.816-5.1327-6.09-11.3706-4.352-5.1471-10.182-6.4242-15.586-3.4154-6.32 3.5195-9.732 7.4503-15.055 17.341-1.805 3.358-2.141 4.627-2.073 7.843.104 4.949 1.909 8.223 7.674 13.918 5.95 5.879 9.34 7.793 17.977 10.154 6.817 1.864 8.307 2.029 19.493 2.158 6.661.076 13.259.339 14.662.585 7.105 1.244 10.288 2.086 18.486 4.891 8.211 2.811 9.434 3.054 15.299 3.04 6.381-.015 10.842-.96 14.898-3.157 1.097-.594 1.994-1.313 1.994-1.597 0-.284-2.031-2.268-4.515-4.407-12.558-10.82-21.226-26.897-21.268-39.4461-.016-4.9248.194-5.8133 2.637-11.144 5.009-10.9317 10.675-15.215 20.843-15.7544 3.304-.1756 7.154.0454 9.243.5307 9.26 2.153 18.855 9.3196 22.104 16.5108 1.459 3.2305 1.649 4.3921 1.444 8.7975-.408 8.7465-4.484 14.6905-11.704 17.0695-9.577 3.154-25.952-4.405-27.432-12.664-.913-5.1018 2.433-11.0247 7.693-13.6136 2.909-1.4326 9.242-1.9707 9.242-.7864 0 .3405-1.649 1.3986-3.665 2.3506-6.173 2.9167-6.774 3.3293-8.328 5.7266-3.084 4.7578-.707 9.6748 6.261 12.9488 10.677 5.019 19.27 3.326 22.891-4.507 1.987-4.297 2.253-7.0806 1.082-11.2991-2.683-9.664-14.647-17.2405-27.457-17.3867-9.245-.1061-14.318 3.6357-18.943 13.9713-3.708 8.2894-3.199 13.9645 2.325 25.8735 6.245 13.463 21.187 27.172 35.094 32.197 4.464 1.612 6.054 1.839 13.051 1.861 4.383.014 9.546-.356 11.475-.823 1.928-.468 5.387-1.099 7.686-1.404 3.414-.454 5.501-1.334 11.391-4.806 11.58-6.827 15.73-12.6 15.539-21.609-.149-6.981-3.357-12.785-9.9-17.908-8.449-6.6175-14.439-14.1999-16.331-20.6715-.666-2.2805-1.562-7.3001-1.99-11.1554-1.203-10.8176-2.18-13.6996-5.998-17.6871-3.474-3.629-9.104-7.8635-13.732-10.3282-3.863-2.0575-9.27-1.7077-14.232.9213-3.461 1.8338-4.547 3.2645-5.067 6.6772-.513 3.3626-3.064.0968-3.064-3.9221 0-2.426-3.755-12.4525-6.46-17.2518-3.34-5.9248-5.527-8.4677-10.319-11.9999-10.795-7.95759-16.795-9.8502-30.393-9.58984-6.901.13285-9.328.44461-12.252 1.57417Z"/>
</svg>
