<svg xmlns="http://www.w3.org/2000/svg" fill="none" viewBox="0 0 200 127">
  <path fill="#681E82" fill-rule="evenodd" d="M154.315.336512c.651.173309 2.315.615245 3.699.981858 3.273.86788 8.845 3.9681 12.223 6.8027 2.834 2.37633 7.599 7.36163 7.608 7.95823.003.2039.722 1.6051 1.597 3.1142 3.033 5.2256 4.95 11.536 5.075 16.6999l.083 3.4459 1.824 1.2158c2.694 1.7947 6.007 5.8968 8.264 10.2302 1.047 2.0127 2.196 4.1091 2.551 4.659 1.887 2.9169 2.527 7.6856 1.791 13.3401-.991 7.6096-2.163 10.7551-5.163 13.8507l-1.891 1.9521 1.653 1.702c1.442 1.4838 4.332 5.8049 4.332 6.4765 0 .1303.246.6352.547 1.1218 1.229 1.988 1.876 8.4975 1.249 12.5555-.642 4.153-2.902 8.815-6.495 13.4-1.779 2.271-2.52 2.931-4.737 4.221-3.67 2.135-5.753 2.633-11.13 2.661-8.051.043-16.703-1.571-22.173-4.136-2.679-1.256-8.08-4.632-10.376-6.485-3.025-2.442-8.528-8.626-11.41-12.824-1.514-2.205-2.912-4.0086-3.106-4.0086-.194 0-.935.2879-1.647.6402-5.501 2.7194-14.015 2.0184-20.506-1.6874-3.857-2.2017-8.2704-6.4334-12.3349-11.826l-2.0888-2.7709-1.381.176c-3.3816.4306-5.6675 1.7361-10.1105 5.7728-5.1346 4.6653-12.9654 6.7787-18.6004 5.02-2.9871-.9326-4.3323-1.7698-8.7709-5.4593-2.1157-1.7587-4.7055-3.9097-5.7554-4.7803-1.0496-.8705-2.7563-2.426-3.7929-3.4568-2.5791-2.565-3.9897-2.9513-12.0528-3.3006-5.4592-.2366-6.5052-.3739-8.6115-1.1291-4.0349-1.4472-6.459-4.0984-8.0832-8.8428-.9738-2.8446-1.4976-5.8735-1.5014-8.6834-.0039-2.9016-2.0613-7.1663-5.46719-11.3317-.67437-.8249-2.0743-2.9246-3.11085-4.666-1.03656-1.7414-2.52734-4.1261-3.31267-5.2996C1.69111 35.3882.00000519 30.3842.00000519 28.1689c0-1.4025 1.13153481-2.723 2.05150481-2.394.34207.1223 3.26888 2.2127 6.50342 4.645 6.63867 4.9923 8.47887 6.1498 11.37577 7.156 2.7076.9398 3.8862.8888 6.3105-.273 2.4797-1.1885 7.0816-2.1477 9.1781-1.9131 2.2501.252 5.9856 2.5553 8.5227 5.2553 2.5267 2.6886 2.9774 2.9676 4.7972 2.9676 1.7603 0 2.1095-.2563 5.864-4.3014 10.1525-10.9388 13.0926-13.9 15.1447-15.2545 2.0326-1.3415 7.7063-3.9534 9.9987-4.6027 2.4847-.7035 6.2942-.5302 10.2087.4643l2.5152.6392.7398-.7795c1.2265-1.2922 5.8453-4.4121 7.4867-5.057 1.264-.4962 2.436-.6002 6.569-.5809 4.527.0207 5.326.1143 7.989.9355 3.477 1.0719 7.385 2.943 10.93 5.232 1.397.9028 2.577 1.6414 2.621 1.6414.044 0 .092-1.3122.106-2.9163.059-6.5943 2.175-11.32534 6.499-14.53155 1.311-.97219 8.831-3.730132 11.501-4.218395 2.178-.398277 5.805-.3719486 7.403.053657ZM142.497 6.77159c-2.268.82855-4.622 1.87807-5.231 2.332-2.965 2.20971-4.47 7.25231-3.817 12.78281.184 1.5568.542 3.4452.795 4.1964.254.7509.525 1.9134.603 2.5833.305 2.6093-2.064 3.3872-3.831 1.2579-.445-.5366-.871-.9759-.945-.9759-.075 0-1.746-1.1858-3.713-2.635-3.923-2.8892-7.599-4.8433-11.695-6.2161-2.112-.7082-3.488-.9268-6.657-1.0578-4.771-.1973-5.567.0043-8.9004 2.2533-2.7667 1.8671-3.2434 2.4037-4.2847 4.8227-.8268 1.9207-.8987 3.1882-.2909 5.1276.8099 2.5856 2.045 4.1784 4.2545 5.4862 2.3775 1.4071 3.9375 1.5598 5.8635.5746 2.471-1.2635 3.673-5.5039 1.984-7-.43-.3806-1.132-.6623-1.562-.6253-1.001.086-1.503-.2719-1.503-1.0715 0-1.4135 2.086-1.7334 3.883-.5956 2.337 1.4795 2.883 3.9688 1.584 7.228-1.399 3.5105-3.571 5.1209-6.977 5.1736-1.379.0216-2.044-.198-3.9528-1.3035-2.656-1.5381-4.0071-3.0759-5.2262-5.9468-.7445-1.7528-.8617-2.3993-.8147-4.484.04-1.7558-.0651-2.5717-.3761-2.9216-.5503-.6203-5.9518-1.8081-8.2211-1.8081-1.9823 0-4.3247.7466-8.1996 2.614-3.1185 1.5024-4.9303 2.8282-7.0413 5.1519-.8241.9072-3.2295 3.4592-5.3453 5.6709-2.1157 2.2116-4.9937 5.2665-6.3957 6.7883-3.3771 3.6658-5.0452 4.5567-8.1968 4.3771-2.912-.166-3.9468-.7453-6.9878-3.9111-1.4754-1.5362-3.1479-2.912-4.2649-3.5092l-1.8376-.9819-2.5812.414c-1.6636.2669-3.2653.7809-4.5049 1.4458-1.5561.8345-2.4172 1.0621-4.509 1.1918-2.2272.138-2.9442.035-5.1783-.7426-1.426-.4962-3.5248-1.5111-4.6641-2.255-4.61463-3.0135-5.47424-3.5458-5.47424-3.3915 0 .4183 3.75004 6.3761 4.97804 7.9085 4.1077 5.1266 6.3253 10.1843 6.3031 14.376-.0237 4.433 1.6988 9.4186 3.8636 11.1851 2.0474 1.6704 3.642 2.0267 10.4511 2.3356 3.4177.155 6.7975.447 7.5107.6486.7131.2013 1.3351.323 1.3821.27.0471-.053-.247-1.3705-.6533-2.9276-1.8379-7.042.029-12.8952 5.0762-15.9161 1.2778-.7645 1.8429-.8872 4.1427-.8995 2.3812-.0127 2.8091.0826 4.0394.8972 4.1335 2.7369 6.141 9.0564 4.2629 13.4201-.8946 2.078-1.4837 2.8722-2.9434 3.9684-1.3917 1.0452-2.72 1.1055-4.9872.227-2.2634-.8769-3.081-1.5481-3.9717-3.2599-.8924-1.7154-.8427-3.1819.1894-5.5832 1.1413-2.656 3.9583-3.8775 5.8545-2.5386 2.0557 1.4517 2.7584 4.666 1.392 6.3667-1.0626 1.3225-2.1936.3743-1.6497-1.3828.6847-2.2123-1.07-3.7548-2.8102-2.4703-.8173.6029-1.3292 1.8434-1.3671 3.3112-.0341 1.3165 1.3694 2.6876 3.4473 3.3678 1.4523.4756 1.7065.478 2.4868.0237 3.5937-2.0934 3.8595-8.1575.5024-11.477-2.3965-2.37-4.6629-2.9243-7.2059-1.7618-2.8993 1.3252-4.5205 3.8815-4.9215 7.7583-.1583 1.5331-.0532 2.356.5664 4.4353 1.5763 5.2889 3.0416 7.533 7.0828 10.8468 1.2295 1.0082 4.0625 3.3689 6.2954 5.2459 3.966 3.3345 4.9901 3.9475 7.8711 4.712 4.1426 1.0989 10.3173-.8152 14.2407-4.4143 4.4546-4.0865 7.714-6.0442 10.7878-6.4788l1.6373-.2313-2.3971-1.7724c-3.426-2.5326-4.599-4.0138-6.378-8.0505l-1.5461-3.5085.0124-3.6662c.011-3.2442.1027-3.8864.7963-5.5795 2.066-5.0443 4.3768-7.5669 8.3644-9.1317 2.1355-.8379 2.7294-.9249 6.066-.8882 4.525.0497 6.985.6529 10.095 2.4753 4.375 2.5633 7.401 7.4156 7.616 12.2119.099 2.2047.018 2.657-.822 4.577-1.248 2.8553-3.141 4.9813-5.583 6.2678-1.756.9252-2.292 1.0472-4.648 1.0559-2.277.0086-2.907-.1187-4.3431-.8769-2.3865-1.2602-3.3073-2.9033-3.4532-6.1618-.0935-2.0864-.0343-2.4756.4066-2.6663.9389-.4056 1.4626.3413 1.6215 2.3124.2711 3.3631 2.1562 5.0572 5.6202 5.0512 5.297-.009 9.617-4.7043 9.075-9.8632-.238-2.2607-2.058-6.0162-3.708-7.6529-1.708-1.6935-4.993-3.4722-7.271-3.9371-2.5033-.5113-7.0904-.4346-9.3405.1563-4.6235 1.2135-7.89 5.8735-8.4262 12.0203-.1849 2.1173-.1207 2.6126.6028 4.6493.9978 2.8089 2.5096 5.7492 3.4316 6.6734.3811.3823 1.958 1.6817 3.5041 2.8886 2.8608 2.2323 5.616 5.1929 8.0934 8.6967 1.7338 2.4527 5.6488 6.1905 8.8988 8.4955 5.699 4.0434 12.229 5.0789 18.141 2.8776 3.336-1.2422 3.532-1.4252 2.932-2.7323-1.236-2.6933-2.032-6.8644-2.184-11.4424-.323-9.8029 1.074-13.1441 7.46-17.8321 4.952-3.6355 8.948-5.0153 13.621-4.702 6.921.4636 10.862 3.0412 13.59 8.8884 2.434 5.2173 3.034 8.5725 2.396 13.3934-.576 4.3464-.882 5.3996-2.133 7.3383-1.221 1.8931-3.122 3.0123-6.369 3.7488-2.893.6563-5.719.6599-7.355.01-4.521-1.7967-7.577-7.6742-7.88-15.1572l-.142-3.4995.987-1.8114c2.171-3.9844 5.926-4.449 9.394-1.1621 1.078 1.0215 1.959 2.7996 2.249 4.538.265 1.5928-.588 3.7531-2.053 5.2029-.9.8899-1.322 1.0818-2.195.9999-.922-.0867-1.094-.2317-1.172-.9862-.078-.7526.065-.9422.957-1.2739 3.172-1.1791 2.82-5.8248-.582-7.6799-2.224-1.2124-3.751-.5072-5.02 2.3177-.945 2.1034-.148 7.5473 1.665 11.3801 1.238 2.6149 2.981 4.5403 4.543 5.0186 2.568.7862 9.011-.5989 10.575-2.273 1.282-1.3725 1.722-2.5273 2.184-5.7355.747-5.1823.392-7.8079-1.696-12.5346-1.573-3.5621-2.56-4.6493-5.805-6.3997-5.367-2.894-9.932-2.707-15.755.6449-1.546.8898-3.806 2.4739-5.022 3.5198-2.932 2.5213-3.759 4.2804-4.188 8.9074-.671 7.222.616 14.0103 3.508 18.5077 4.373 6.8006 8.53 11.9796 13.176 16.4146 1.989 1.899 8.267 5.953 11.154 7.202 3.223 1.394 8.323 2.572 13.921 3.214 9.86 1.13 14.672-.082 18.422-4.64 1.805-2.194 3.79-5.501 4.828-8.043.742-1.817.819-2.368.842-6.023.019-3.1273-.086-4.2782-.47-5.166-.273-.6283-.857-2.0247-1.299-3.1033-1.192-2.9095-3.931-5.9101-6.269-6.8686-3.93-1.6111-4.446-4.0825-1.11-5.316 1.266-.4682 4.315-2.7719 5.383-4.067 1.172-1.4218 2.12-4.3698 2.771-8.6171.801-5.224.677-7.6779-.518-10.2882-3.896-8.5045-7.199-13.0775-10.86-15.0319-1.936-1.0335-2.054-1.0575-2.329-.4663-.67 1.4475-5.46 6.1728-7.311 7.2127-1.712.9618-2.235 1.0882-4.924 1.1888-5.924.2216-11.985-2.036-15.463-5.7602-1.854-1.985-4.752-5.7881-5.802-7.6142-1.15-2.0007-1.089-6.2065.129-8.8588.887-1.9307 3.514-5.0029 5.003-5.8518 3.635-2.071 8.401-2.8132 10.581-1.6481 1.186.6343 3.092 2.9676 3.804 4.6574.665 1.5774.662 4.3613-.006 5.9461-1.158 2.7499-3.928 4.688-5.697 3.9871-.841-.3333-1.207-1.3101-.704-1.8771.165-.1863.734-.3956 1.264-.4649 3.164-.4149 4.499-4.3474 2.582-7.6076-1.258-2.1393-2.353-2.8489-4.387-2.8422-1.848.0063-6.031 1.5244-7.325 2.6582-1.74 1.5258-2.999 3.7525-3.515 6.2205l-.501 2.3876 1.255 2.4704c.69 1.3584 2.209 3.6478 3.375 5.0872 1.882 2.323 2.453 2.7946 5.081 4.2004 5.109 2.7316 10.876 3.3836 14.206 1.6055 1.764-.9419 6.186-5.6116 6.985-7.3766.367-.8093.626-2.278.737-4.1724.148-2.5267.066-3.3302-.603-5.9229-2.622-10.1558-8.576-18.0967-17.18-22.91203-4.742-2.65428-8.567-3.65747-13.02-3.41517-2.12.11531-3.503.4516-6.787 1.65109Z" clip-rule="evenodd"/>
  <path fill="#F5EDE3" d="M142.497 6.77159c-2.268.82855-4.622 1.87807-5.231 2.332-2.965 2.20971-4.47 7.25231-3.817 12.78281.184 1.5568.542 3.4452.795 4.1964.254.7509.525 1.9134.603 2.5833.305 2.6093-2.064 3.3872-3.831 1.2579-.445-.5366-.871-.9759-.945-.9759-.075 0-1.746-1.1858-3.713-2.635-3.923-2.8892-7.599-4.8433-11.695-6.2161-2.112-.7082-3.488-.9268-6.657-1.0578-4.771-.1973-5.567.0043-8.9004 2.2533-2.7667 1.8671-3.2434 2.4037-4.2847 4.8227-.8268 1.9207-.8987 3.1882-.2909 5.1276.8099 2.5856 2.045 4.1784 4.2545 5.4862 2.3775 1.4071 3.9375 1.5598 5.8635.5746 2.471-1.2635 3.673-5.5039 1.984-7-.43-.3806-1.132-.6623-1.562-.6253-1.001.086-1.503-.2719-1.503-1.0715 0-1.4135 2.086-1.7334 3.883-.5956 2.337 1.4795 2.883 3.9688 1.584 7.228-1.399 3.5105-3.571 5.1209-6.977 5.1736-1.379.0216-2.044-.198-3.9528-1.3035-2.656-1.5381-4.0071-3.0759-5.2262-5.9468-.7445-1.7528-.8617-2.3993-.8147-4.484.04-1.7558-.0651-2.5717-.3761-2.9216-.5503-.6203-5.9518-1.8081-8.2211-1.8081-1.9823 0-4.3247.7466-8.1996 2.614-3.1185 1.5024-4.9303 2.8282-7.0413 5.1519-.8241.9072-3.2295 3.4592-5.3453 5.6709-2.1157 2.2116-4.9937 5.2665-6.3957 6.7883-3.3771 3.6658-5.0452 4.5567-8.1968 4.3771-2.912-.166-3.9468-.7453-6.9878-3.9111-1.4754-1.5362-3.1479-2.912-4.2649-3.5092l-1.8376-.9819-2.5812.414c-1.6636.2669-3.2653.7809-4.5049 1.4458-1.5561.8345-2.4172 1.0621-4.509 1.1918-2.2272.138-2.9442.035-5.1783-.7426-1.426-.4962-3.5248-1.5111-4.6641-2.255-4.61463-3.0135-5.47424-3.5458-5.47424-3.3915 0 .4183 3.75004 6.3761 4.97804 7.9085 4.1077 5.1266 6.3253 10.1843 6.3031 14.376-.0237 4.433 1.6988 9.4186 3.8636 11.1851 2.0474 1.6704 3.642 2.0267 10.4511 2.3356 3.4177.155 6.7975.447 7.5107.6486.7131.2013 1.3351.323 1.3821.27.0471-.053-.247-1.3705-.6533-2.9276-1.8379-7.042.029-12.8952 5.0762-15.9161 1.2778-.7645 1.8429-.8872 4.1427-.8995 2.3812-.0127 2.8091.0826 4.0394.8972 4.1335 2.7369 6.141 9.0564 4.2629 13.4201-.8946 2.078-1.4837 2.8722-2.9434 3.9684-1.3917 1.0452-2.72 1.1055-4.9872.227-2.2634-.8769-3.081-1.5481-3.9717-3.2599-.8924-1.7154-.8427-3.1819.1894-5.5832 1.1413-2.656 3.9583-3.8775 5.8545-2.5386 2.0557 1.4517 2.7584 4.666 1.392 6.3667-1.0626 1.3225-2.1936.3743-1.6497-1.3828.6847-2.2123-1.07-3.7548-2.8102-2.4703-.8173.6029-1.3292 1.8434-1.3671 3.3112-.0341 1.3165 1.3694 2.6876 3.4473 3.3678 1.4523.4756 1.7065.478 2.4868.0237 3.5937-2.0934 3.8595-8.1575.5024-11.477-2.3965-2.37-4.6629-2.9243-7.2059-1.7618-2.8993 1.3252-4.5205 3.8815-4.9215 7.7583-.1583 1.5331-.0532 2.356.5664 4.4353 1.5763 5.2889 3.0416 7.533 7.0828 10.8468 1.2295 1.0082 4.0625 3.3689 6.2954 5.2459 3.966 3.3345 4.9901 3.9475 7.8711 4.712 4.1426 1.0989 10.3173-.8152 14.2407-4.4143 4.4546-4.0865 7.714-6.0442 10.7878-6.4788l1.6373-.2313-2.3971-1.7724c-3.426-2.5326-4.599-4.0138-6.378-8.0505l-1.5461-3.5085.0124-3.6662c.011-3.2442.1027-3.8864.7963-5.5795 2.066-5.0443 4.3768-7.5669 8.3644-9.1317 2.1355-.8379 2.7294-.9249 6.066-.8882 4.525.0497 6.985.6529 10.095 2.4753 4.375 2.5633 7.401 7.4156 7.616 12.2119.099 2.2047.018 2.657-.822 4.577-1.248 2.8553-3.141 4.9813-5.583 6.2678-1.756.9252-2.292 1.0472-4.648 1.0559-2.277.0086-2.907-.1187-4.3431-.8769-2.3865-1.2602-3.3073-2.9033-3.4532-6.1618-.0935-2.0864-.0343-2.4756.4066-2.6663.9389-.4056 1.4626.3413 1.6215 2.3124.2711 3.3631 2.1562 5.0572 5.6202 5.0512 5.297-.009 9.617-4.7043 9.075-9.8632-.238-2.2607-2.058-6.0162-3.708-7.6529-1.708-1.6935-4.993-3.4722-7.271-3.9371-2.5033-.5113-7.0904-.4346-9.3405.1563-4.6235 1.2135-7.89 5.8735-8.4262 12.0203-.1849 2.1173-.1207 2.6126.6028 4.6493.9978 2.8089 2.5096 5.7492 3.4316 6.6734.3811.3823 1.958 1.6817 3.5041 2.8886 2.8608 2.2323 5.616 5.1929 8.0934 8.6967 1.7338 2.4527 5.6488 6.1905 8.8988 8.4955 5.699 4.0434 12.229 5.0789 18.141 2.8776 3.336-1.2422 3.532-1.4252 2.932-2.7323-1.236-2.6933-2.032-6.8644-2.184-11.4424-.323-9.8029 1.074-13.1441 7.46-17.8321 4.952-3.6355 8.948-5.0153 13.621-4.702 6.921.4636 10.862 3.0412 13.59 8.8884 2.434 5.2173 3.034 8.5725 2.396 13.3934-.576 4.3464-.882 5.3996-2.133 7.3383-1.221 1.8931-3.122 3.0123-6.369 3.7488-2.893.6563-5.719.6599-7.355.01-4.521-1.7967-7.577-7.6742-7.88-15.1572l-.142-3.4995.987-1.8114c2.171-3.9844 5.926-4.449 9.394-1.1621 1.078 1.0215 1.959 2.7996 2.249 4.538.265 1.5928-.588 3.7531-2.053 5.2029-.9.8899-1.322 1.0818-2.195.9999-.922-.0867-1.094-.2317-1.172-.9862-.078-.7526.065-.9422.957-1.2739 3.172-1.1791 2.82-5.8248-.582-7.6799-2.224-1.2124-3.751-.5072-5.02 2.3177-.945 2.1034-.148 7.5473 1.665 11.3801 1.238 2.6149 2.981 4.5403 4.543 5.0186 2.568.7862 9.011-.5989 10.575-2.273 1.282-1.3725 1.722-2.5273 2.184-5.7355.747-5.1823.392-7.8079-1.696-12.5346-1.573-3.5621-2.56-4.6493-5.805-6.3997-5.367-2.894-9.932-2.707-15.755.6449-1.546.8898-3.806 2.4739-5.022 3.5198-2.932 2.5213-3.759 4.2804-4.188 8.9074-.671 7.222.616 14.0103 3.508 18.5077 4.373 6.8006 8.53 11.9796 13.176 16.4146 1.989 1.899 8.267 5.953 11.154 7.202 3.223 1.394 8.323 2.572 13.921 3.214 9.86 1.13 14.672-.082 18.422-4.64 1.805-2.194 3.79-5.501 4.828-8.043.742-1.817.819-2.368.842-6.023.019-3.1273-.086-4.2782-.47-5.166-.273-.6283-.857-2.0247-1.299-3.1033-1.192-2.9095-3.931-5.9101-6.269-6.8686-3.93-1.6111-4.446-4.0825-1.11-5.316 1.266-.4682 4.315-2.7719 5.383-4.067 1.172-1.4218 2.12-4.3698 2.771-8.6171.801-5.224.677-7.6779-.518-10.2882-3.896-8.5045-7.199-13.0775-10.86-15.0319-1.936-1.0335-2.054-1.0575-2.329-.4663-.67 1.4475-5.46 6.1728-7.311 7.2127-1.712.9618-2.235 1.0882-4.924 1.1888-5.924.2216-11.985-2.036-15.463-5.7602-1.854-1.985-4.752-5.7881-5.802-7.6142-1.15-2.0007-1.089-6.2065.129-8.8588.887-1.9307 3.514-5.0029 5.003-5.8518 3.635-2.071 8.401-2.8132 10.581-1.6481 1.186.6343 3.092 2.9676 3.804 4.6574.665 1.5774.662 4.3613-.006 5.9461-1.158 2.7499-3.928 4.688-5.697 3.9871-.841-.3333-1.207-1.3101-.704-1.8771.165-.1863.734-.3956 1.264-.4649 3.164-.4149 4.499-4.3474 2.582-7.6076-1.258-2.1393-2.353-2.8489-4.387-2.8422-1.848.0063-6.031 1.5244-7.325 2.6582-1.74 1.5258-2.999 3.7525-3.515 6.2205l-.501 2.3876 1.255 2.4704c.69 1.3584 2.209 3.6478 3.375 5.0872 1.882 2.323 2.453 2.7946 5.081 4.2004 5.109 2.7316 10.876 3.3836 14.206 1.6055 1.764-.9419 6.186-5.6116 6.985-7.3766.367-.8093.626-2.278.737-4.1724.148-2.5267.066-3.3302-.603-5.9229-2.622-10.1558-8.576-18.0967-17.18-22.91203-4.742-2.65428-8.567-3.65747-13.02-3.41517-2.12.11531-3.503.4516-6.787 1.65109Z"/>
</svg>
