<svg xmlns="http://www.w3.org/2000/svg" fill="none" viewBox="0 0 208 139">
  <path fill="#681E82" fill-rule="evenodd" d="M45.6194 9.74697c-.639.21268-2.2728.75533-3.6307 1.20553-3.2134 1.0659-8.5812 4.5-11.7774 7.5353-2.6801 2.5446-7.1261 7.811-7.0975 8.407.0097.2038-.6208 1.6461-1.4008 3.2058-2.7019 5.4006-4.2231 11.816-4.0258 16.9777l.1314 3.4443-1.7455 1.3248c-2.5768 1.9556-5.6286 6.252-7.61094 10.7147-.92059 2.0728-1.93639 4.2353-2.25717 4.8058-1.70192 3.0265-2.04405 7.8251-.95742 13.424 1.46256 7.5347 2.82842 10.6028 6.01493 13.5095l2.009 1.833-1.5442 1.7997c-1.3463 1.5689-3.96207 6.0579-3.92029 6.7279.00811.13-.2062.649-.47599 1.153-1.10287 2.06-1.34435 8.597-.46576 12.608.89927 4.106 3.44494 8.622 7.31624 12.979 1.9172 2.158 2.6978 2.772 4.991 3.924 3.7961 1.907 5.906 2.277 11.2738 1.978 8.0393-.449 16.5741-2.588 21.8739-5.481 2.5956-1.417 7.7762-5.116 9.9531-7.106 2.8674-2.621 7.9745-9.129 10.5906-13.495 1.374-2.293 2.6567-4.179 2.8502-4.191.1934-.012.9512.231 1.6843.539 5.6596 2.378 14.1136 1.16 20.362-2.935 3.7116-2.433 7.8536-6.9256 11.5756-12.5558l1.912-2.8931 1.389.0915c3.402.2235 5.765 1.3871 10.451 5.1452 5.415 4.3434 13.362 5.9752 18.877 3.8761 2.924-1.113 4.214-2.0306 8.415-5.9838 2.002-1.8844 4.453-4.1893 5.447-5.1222.993-.9329 2.6-2.5895 3.571-3.6816 2.414-2.7174 3.798-3.189 11.824-4.0293 5.434-.5691 6.47-.77 8.525-1.6522 3.937-1.6905 6.192-4.4846 7.518-9.3189.795-2.8986 1.129-5.9537.958-8.7585-.177-2.8964 1.611-7.2785 4.752-11.6437.621-.8644 1.888-3.0455 2.814-4.8468.927-1.8013 2.266-4.2724 2.977-5.4916 1.368-2.3462 2.745-7.4438 2.607-9.6549-.087-1.3998-1.299-2.6488-2.197-2.2643-.334.1429-3.125 2.4078-6.202 5.0328-6.315 5.3876-8.08 6.6552-10.909 7.8361-2.644 1.1032-3.823 1.1242-6.315.1124-2.549-1.035-7.202-1.7117-9.28-1.3497-2.23.3887-5.815 2.9155-8.179 5.7651-2.355 2.8376-2.788 3.1435-4.604 3.2545-1.757.1073-2.121-.1272-6.12-3.9356-10.814-10.2989-13.933-13.0752-16.065-14.3019-2.113-1.215-7.938-3.476-10.267-3.9842-2.523-.5507-6.315-.1454-10.16 1.086l-2.471.7914-.787-.7329c-1.304-1.2149-6.108-4.0472-7.787-4.5908-1.2919-.4182-2.4688-.4505-6.5921-.1792-4.5169.2967-5.3094.439-7.9161 1.421-3.4033 1.2818-7.1875 3.3877-10.583 5.8885-1.339.9864-2.4706 1.7955-2.5143 1.7982-.044.0027-.1732-1.304-.2875-2.9042-.4693-6.5783-2.8757-11.1712-7.3907-14.1077-1.3689-.8904-9.0458-3.18448-11.741-3.50899-2.1991-.26466-5.8178-.01717-7.3859.50506Zm12.1952 5.70213c2.3157.6887 4.7304 1.5926 5.3668 2.0085 3.0965 2.0247 4.913 6.966 4.605 12.5258-.0869 1.5651-.3265 3.4717-.5328 4.237-.2064.7649-.4049 1.9417-.4412 2.6151-.1419 2.623 2.2714 3.2549 3.9021 1.0218.4111-.5627.8085-1.0271.8829-1.0316.0747-.0046 1.6687-1.2901 3.5423-2.8564 3.735-3.123 7.2828-5.2976 11.2852-6.9175 2.0647-.8358 3.4245-1.1379 6.5794-1.4619 4.7496-.4879 5.5566-.3352 9.0237 1.7063 2.877 1.6948 3.386 2.2013 4.576 4.5522.945 1.8666 1.096 3.1273.61 5.1001-.648 2.6301-1.782 4.2952-3.906 5.7352-2.285 1.5495-3.832 1.797-5.8163.9311-2.5444-1.1104-4.008-5.2694-2.4158-6.8657.4054-.4061 1.0894-.73 1.5202-.7193 1.0045.0248 1.4834-.3631 1.4337-1.1611-.088-1.4108-2.1894-1.603-3.9129-.3577-2.2402 1.6192-2.63 4.137-1.1309 7.3109 1.6145 3.4185 3.8822 4.8934 7.285 4.7382 1.378-.0624 2.029-.3222 3.865-1.542 2.555-1.6972 3.808-3.3145 4.846-6.2543.634-1.7948.711-2.4473.534-4.5252-.149-1.75-.095-2.5707.194-2.939.51-.6526 5.828-2.1676 8.093-2.306 1.978-.1209 4.363.4814 8.346 2.109 3.206 1.3094 5.097 2.5222 7.349 4.7127.879.8552 3.438 3.2556 5.688 5.3341 2.249 2.0784 5.312 4.952 6.806 6.3854 3.598 3.4529 5.319 4.2403 8.453 3.8688 2.896-.3432 3.893-.9845 6.731-4.3298 1.378-1.6232 2.961-3.0984 4.039-3.7626l1.773-1.0921 2.602.2558c1.677.165 3.308.5802 4.586 1.1683 1.605.738 2.479.9127 4.575.9146 2.231.0018 2.941-.1447 5.122-1.057 1.393-.5823 3.424-1.7232 4.515-2.5352 4.418-3.2892 5.243-3.8729 5.253-3.7189.026.4175-3.346 6.5927-4.477 8.1971-3.781 5.3674-5.679 10.5506-5.396 14.7331.299 4.4231-1.11 9.5043-3.161 11.3994-1.939 1.7921-3.509 2.245-10.286 2.9686-3.401.3631-6.756.8607-7.456 1.1054-.699.2444-1.312.4038-1.362.3537-.051-.05.161-1.3829.47-2.9618 1.396-7.1407-.832-12.8689-6.057-15.5763-1.323-.6852-1.895-.7731-4.191-.6452-2.378.1326-2.799.2539-3.976 1.1419-3.955 2.9838-5.566 9.4137-3.42 13.6546 1.022 2.0195 1.66 2.7763 3.185 3.7814 1.454.9583 2.784.9375 4.992-.0777 2.204-1.0132 2.979-1.733 3.761-3.4958.784-1.7666.643-3.2273-.536-5.5611-1.305-2.5813-4.192-3.6287-6.002-2.1768-1.961 1.5744-2.463 4.8254-.993 6.4396 1.143 1.2551 2.213.2398 1.561-1.4808-.821-2.1664.834-3.8129 2.651-2.637.853.5519 1.441 1.7588 1.57 3.2215.116 1.3119-1.199 2.766-3.231 3.5717-1.42.5633-1.673.5811-2.48.1753-3.718-1.8702-4.36-7.9066-1.216-11.4246 2.245-2.5116 4.472-3.2031 7.083-2.1979 2.976 1.1459 4.753 3.5984 5.394 7.4434.254 1.5205.2 2.3483-.289 4.4615-1.244 5.375-2.567 7.7041-6.394 11.2581-1.165 1.0813-3.846 3.6102-5.957 5.6199-3.751 3.5701-4.735 4.2443-7.563 5.1831-4.067 1.3494-10.349-.1845-14.489-3.5375-4.7-3.807-8.075-5.5622-11.17-5.8086l-1.649-.131 2.283-1.9152c3.262-2.7368 4.34-4.2866 5.865-8.4242l1.324-3.5961-.24-3.6584c-.213-3.2374-.344-3.8728-1.142-5.5204-2.376-4.9087-4.839-7.2857-8.917-8.6043-2.183-.706-2.781-.7566-6.109-.5165-4.514.3255-6.932 1.0776-9.9227 3.0863-4.2066 2.8252-6.9248 7.8528-6.8411 12.6531.0385 2.2065.1476 2.653 1.1049 4.5182 1.4231 2.7738 3.4456 4.7803 5.9625 5.9154 1.8101.8164 2.3532.9054 4.7054.7704 2.273-.1302 2.893-.2957 4.28-1.1401 2.303-1.4033 3.12-3.0994 3.063-6.3607-.036-2.0881-.12-2.473-.572-2.6364-.962-.3476-1.438.4298-1.474 2.4068-.062 3.3734-1.837 5.1792-5.295 5.3845-5.2882.314-9.8924-4.1089-9.672-9.2911.0968-2.2709 1.6795-6.1302 3.2254-7.8645 1.5991-1.7944 4.767-3.7701 7.0116-4.3731 2.467-.6629 7.05-.8662 9.333-.4136 4.69.9292 8.24 5.3812 9.158 11.4836.316 2.102.283 2.6003-.313 4.6772-.821 2.8645-2.147 5.8914-3.01 6.87-.356.4048-1.849 1.798-3.317 3.0968-2.717 2.4026-5.283 5.5256-7.537 9.1739-1.578 2.5537-5.253 6.5232-8.3532 9.022-5.4373 4.3835-11.8902 5.8155-17.9281 3.9785-3.4067-1.036-3.6139-1.207-3.0963-2.548 1.0667-2.7639 1.6016-6.9756 1.4677-11.5541-.2868-9.8041-1.8896-13.0537-8.5548-17.3434-5.1685-3.3265-9.2435-4.46-13.8875-3.8623-6.8796.8848-10.6526 3.6979-13.0118 9.7003-2.1046 5.3558-2.4948 8.7412-1.5575 13.5141.8454 4.303 1.2163 5.3355 2.5851 7.1943 1.3364 1.815 3.3039 2.8161 6.5905 3.3531 2.9281.479 5.7492.31 7.3414-.438 4.4011-2.0695 7.0854-8.1222 6.9219-15.6094l-.0762-3.5015-1.098-1.7478c-2.4148-3.8444-6.1914-4.0791-9.4483-.587-1.0124 1.0853-1.781 2.9137-1.9619 4.6665-.1656 1.6059.8197 3.7102 2.3731 5.0678.9535.8333 1.386.9992 2.2527.8641.9149-.1427 1.0778-.2979 1.1082-1.0557.0306-.7559-.1236-.9365-1.0341-1.2131-3.2397-.9835-3.1776-5.6418.1028-7.7008 2.1438-1.3458 3.712-.735 5.1545 2.0071 1.0742 2.0418.6178 7.5239-.9539 11.46-1.0724 2.6855-2.6922 4.7135-4.2216 5.2861-2.514.9414-9.0319-.0482-10.697-1.6237-1.3648-1.2917-1.8755-2.4175-2.5368-5.5914-1.0678-5.1269-.8765-7.7692.9134-12.6142 1.3487-3.6514 2.2654-4.7966 5.3961-6.7417 5.176-3.2157 9.7439-3.3074 15.7651-.3171 1.5986.7939 3.9527 2.2372 5.2316 3.2069 3.0826 2.3377 4.0175 4.043 4.7342 8.635 1.1189 7.1674.2568 14.0213-2.3498 18.6869-3.9417 7.054-7.7688 12.476-12.13 17.187-1.8669 2.017-7.8813 6.445-10.6843 7.868-3.131 1.589-8.1474 3.075-13.6954 4.057-9.7705 1.729-14.6485.813-18.6753-3.508-1.9378-2.08-4.125-5.259-5.3195-7.733-.8535-1.768-.9649-2.314-1.2147-5.96-.2138-3.12-.1809-4.275.1478-5.185.2327-.644.7291-2.073 1.1032-3.177 1.0089-2.976 3.5557-6.1382 5.8298-7.2375 3.8219-1.8477 4.1836-4.3458.7774-5.3736-1.2932-.3901-4.48-2.5034-5.6259-3.731-1.2584-1.3476-2.388-4.2321-3.30207-8.4318-1.12452-5.1651-1.15375-7.622-.12297-10.3002 3.35874-8.7259 6.37174-13.4917 9.90354-15.6656 1.8679-1.1496 1.9848-1.1808 2.2954-.6074.7593 1.4038 5.8346 5.828 7.7464 6.753 1.7684.8557 2.2984.9498 4.989.8863 5.926-.1401 11.8351-2.7631 15.0751-6.6923 1.7271-2.0943 4.3828-6.067 5.3168-7.9536 1.0238-2.0671.7007-6.2611-.68-8.834-1.0049-1.873-3.8181-4.7792-5.3577-5.5356-3.7569-1.8454-8.5596-2.2956-10.6632-.9997-1.1445.7054-2.9014 3.1505-3.5071 4.8805-.5652 1.615-.3891 4.3934.3758 5.9345 1.3274 2.6741 4.2121 4.4395 5.935 3.632.8186-.3839 1.1231-1.3812.5855-1.9164-.1767-.1759-.7574-.3501-1.2903-.387-3.1846-.2211-4.7615-4.0647-3.0508-7.4356 1.1227-2.212 2.1713-2.987 4.2019-3.1044 1.8451-.1064 6.1148 1.1537 7.4763 2.2065 1.8322 1.4167 3.2268 3.5624 3.896 5.9942l.6477 2.3527-1.0988 2.5421c-.6043 1.398-1.9778 3.7756-3.0519 5.2834-1.7339 2.4334-2.2742 2.9389-4.8103 4.5023-4.9286 3.038-10.6443 4.0404-14.0787 2.4688-1.8191-.8325-6.5236-5.2236-7.4311-6.9366-.4163-.7853-.7664-2.2355-.995-4.1196-.3049-2.5128-.2731-3.3198.2334-5.9483 1.9851-10.2965 7.4337-18.5854 15.7218-23.9163 4.568-2.9385 8.3232-4.173 12.7826-4.2027 2.1239-.0143 3.5247.2371 6.8767 1.234Z" clip-rule="evenodd"/>
  <path fill="#F5EDE3" d="M57.8146 15.4491c2.3157.6887 4.7304 1.5926 5.3668 2.0085 3.0965 2.0247 4.913 6.966 4.605 12.5258-.0869 1.5651-.3265 3.4717-.5328 4.237-.2064.7649-.4049 1.9417-.4412 2.6151-.1419 2.623 2.2714 3.2549 3.9021 1.0218.4111-.5627.8085-1.0271.8829-1.0316.0747-.0046 1.6687-1.2901 3.5423-2.8564 3.735-3.123 7.2828-5.2976 11.2852-6.9175 2.0647-.8358 3.4245-1.1379 6.5794-1.4619 4.7496-.4879 5.5566-.3352 9.0237 1.7063 2.877 1.6948 3.386 2.2013 4.576 4.5522.945 1.8666 1.096 3.1273.61 5.1001-.648 2.6301-1.782 4.2952-3.906 5.7352-2.285 1.5495-3.832 1.797-5.8163.9311-2.5444-1.1104-4.008-5.2694-2.4158-6.8657.4054-.4061 1.0894-.73 1.5202-.7193 1.0045.0248 1.4834-.3631 1.4337-1.1611-.088-1.4108-2.1894-1.603-3.9129-.3577-2.2402 1.6192-2.63 4.137-1.1309 7.3109 1.6145 3.4185 3.8822 4.8934 7.285 4.7382 1.378-.0624 2.029-.3222 3.865-1.542 2.555-1.6972 3.808-3.3145 4.846-6.2543.634-1.7948.711-2.4473.534-4.5252-.149-1.75-.095-2.5707.194-2.939.51-.6526 5.828-2.1676 8.093-2.306 1.978-.1209 4.363.4814 8.346 2.109 3.206 1.3094 5.097 2.5222 7.349 4.7127.879.8552 3.438 3.2556 5.688 5.3341 2.249 2.0784 5.312 4.952 6.806 6.3854 3.598 3.4529 5.319 4.2403 8.453 3.8688 2.896-.3432 3.893-.9845 6.731-4.3298 1.378-1.6232 2.961-3.0984 4.039-3.7626l1.773-1.0921 2.602.2558c1.677.165 3.308.5802 4.586 1.1683 1.605.738 2.479.9127 4.575.9146 2.231.0018 2.941-.1447 5.122-1.057 1.393-.5823 3.424-1.7232 4.515-2.5352 4.418-3.2892 5.243-3.8729 5.253-3.7189.026.4175-3.346 6.5927-4.477 8.1971-3.781 5.3674-5.679 10.5506-5.396 14.7331.299 4.4231-1.11 9.5043-3.161 11.3994-1.939 1.7921-3.509 2.245-10.286 2.9686-3.401.3631-6.756.8607-7.456 1.1054-.699.2444-1.312.4038-1.362.3537-.051-.05.161-1.3829.47-2.9618 1.396-7.1407-.832-12.8689-6.057-15.5763-1.323-.6852-1.895-.7731-4.191-.6452-2.378.1326-2.799.2539-3.976 1.1419-3.955 2.9838-5.566 9.4137-3.42 13.6546 1.022 2.0195 1.66 2.7763 3.185 3.7814 1.454.9583 2.784.9375 4.992-.0777 2.204-1.0132 2.979-1.733 3.761-3.4958.784-1.7666.643-3.2273-.536-5.5611-1.305-2.5813-4.192-3.6287-6.002-2.1768-1.961 1.5744-2.463 4.8254-.993 6.4396 1.143 1.2551 2.213.2398 1.561-1.4808-.821-2.1664.834-3.8129 2.651-2.637.853.5519 1.441 1.7588 1.57 3.2215.116 1.3119-1.199 2.766-3.231 3.5717-1.42.5633-1.673.5811-2.48.1753-3.718-1.8702-4.36-7.9066-1.216-11.4246 2.245-2.5116 4.472-3.2031 7.083-2.1979 2.976 1.1459 4.753 3.5984 5.394 7.4434.254 1.5205.2 2.3483-.289 4.4615-1.244 5.375-2.567 7.7041-6.394 11.2581-1.165 1.0813-3.846 3.6102-5.957 5.6199-3.751 3.5701-4.735 4.2443-7.563 5.1831-4.067 1.3494-10.349-.1845-14.489-3.5375-4.7-3.807-8.075-5.5622-11.17-5.8086l-1.649-.131 2.283-1.9152c3.262-2.7368 4.34-4.2866 5.865-8.4242l1.324-3.5961-.24-3.6584c-.213-3.2374-.344-3.8728-1.142-5.5204-2.376-4.9087-4.839-7.2857-8.917-8.6043-2.183-.706-2.781-.7566-6.109-.5165-4.514.3255-6.932 1.0776-9.9227 3.0863-4.2066 2.8252-6.9248 7.8528-6.8411 12.6531.0385 2.2065.1476 2.653 1.1049 4.5182 1.4231 2.7738 3.4456 4.7803 5.9625 5.9154 1.8101.8164 2.3532.9054 4.7054.7704 2.273-.1302 2.893-.2957 4.28-1.1401 2.303-1.4033 3.12-3.0994 3.063-6.3607-.036-2.0881-.12-2.473-.572-2.6364-.962-.3476-1.438.4298-1.474 2.4068-.062 3.3734-1.837 5.1792-5.295 5.3845-5.2882.314-9.8924-4.1089-9.672-9.2911.0968-2.2709 1.6795-6.1302 3.2254-7.8645 1.5991-1.7944 4.767-3.7701 7.0116-4.3731 2.467-.6629 7.05-.8662 9.333-.4136 4.69.9292 8.24 5.3812 9.158 11.4836.316 2.102.283 2.6003-.313 4.6772-.821 2.8645-2.147 5.8914-3.01 6.87-.356.4048-1.849 1.798-3.317 3.0968-2.717 2.4026-5.283 5.5256-7.537 9.1739-1.578 2.5537-5.253 6.5232-8.3532 9.022-5.4373 4.3835-11.8902 5.8155-17.9281 3.9785-3.4067-1.036-3.6139-1.207-3.0963-2.548 1.0667-2.7639 1.6016-6.9756 1.4677-11.5541-.2868-9.8041-1.8896-13.0537-8.5548-17.3434-5.1685-3.3265-9.2435-4.46-13.8875-3.8623-6.8796.8848-10.6526 3.6979-13.0118 9.7003-2.1046 5.3558-2.4948 8.7412-1.5575 13.5141.8454 4.303 1.2163 5.3355 2.5851 7.1943 1.3364 1.815 3.3039 2.8161 6.5905 3.3531 2.9281.479 5.7492.31 7.3414-.438 4.4011-2.0695 7.0854-8.1222 6.9219-15.6094l-.0762-3.5015-1.098-1.7478c-2.4148-3.8444-6.1914-4.0791-9.4483-.587-1.0124 1.0853-1.781 2.9137-1.9619 4.6665-.1656 1.6059.8197 3.7102 2.3731 5.0678.9535.8333 1.386.9992 2.2527.8641.9149-.1427 1.0778-.2979 1.1082-1.0557.0306-.7559-.1236-.9365-1.0341-1.2131-3.2397-.9835-3.1776-5.6418.1028-7.7008 2.1438-1.3458 3.712-.735 5.1545 2.0071 1.0742 2.0418.6178 7.5239-.9539 11.46-1.0724 2.6855-2.6922 4.7135-4.2216 5.2861-2.514.9414-9.0319-.0482-10.697-1.6237-1.3648-1.2917-1.8755-2.4175-2.5368-5.5914-1.0678-5.1269-.8765-7.7692.9134-12.6142 1.3487-3.6514 2.2654-4.7966 5.3961-6.7417 5.176-3.2157 9.7439-3.3074 15.7651-.3171 1.5986.7939 3.9527 2.2372 5.2316 3.2069 3.0826 2.3377 4.0175 4.043 4.7342 8.635 1.1189 7.1674.2568 14.0213-2.3498 18.6869-3.9417 7.054-7.7688 12.476-12.13 17.187-1.8669 2.017-7.8813 6.445-10.6843 7.868-3.131 1.589-8.1474 3.075-13.6954 4.057-9.7705 1.729-14.6485.813-18.6753-3.508-1.9378-2.08-4.125-5.259-5.3195-7.733-.8535-1.768-.9649-2.314-1.2147-5.96-.2138-3.12-.1809-4.275.1478-5.185.2327-.644.7291-2.073 1.1032-3.177 1.0089-2.976 3.5557-6.1382 5.8298-7.2375 3.8219-1.8477 4.1836-4.3458.7774-5.3736-1.2932-.3901-4.48-2.5034-5.6259-3.731-1.2584-1.3476-2.388-4.2321-3.30207-8.4318-1.12452-5.1651-1.15375-7.622-.12297-10.3002 3.35874-8.7259 6.37174-13.4917 9.90354-15.6656 1.8679-1.1496 1.9848-1.1808 2.2954-.6074.7593 1.4038 5.8346 5.828 7.7464 6.753 1.7684.8557 2.2984.9498 4.989.8863 5.926-.1401 11.8351-2.7631 15.0751-6.6923 1.7271-2.0943 4.3828-6.067 5.3168-7.9536 1.0238-2.0671.7007-6.2611-.68-8.834-1.0049-1.873-3.8181-4.7792-5.3577-5.5356-3.7569-1.8454-8.5596-2.2956-10.6632-.9997-1.1445.7054-2.9014 3.1505-3.5071 4.8805-.5652 1.615-.3891 4.3934.3758 5.9345 1.3274 2.6741 4.2121 4.4395 5.935 3.632.8186-.3839 1.1231-1.3812.5855-1.9164-.1767-.1759-.7574-.3501-1.2903-.387-3.1846-.2211-4.7615-4.0647-3.0508-7.4356 1.1227-2.212 2.1713-2.987 4.2019-3.1044 1.8451-.1064 6.1148 1.1537 7.4763 2.2065 1.8322 1.4167 3.2268 3.5624 3.896 5.9942l.6477 2.3527-1.0988 2.5421c-.6043 1.398-1.9778 3.7756-3.0519 5.2834-1.7339 2.4334-2.2742 2.9389-4.8103 4.5023-4.9286 3.038-10.6443 4.0404-14.0787 2.4688-1.8191-.8325-6.5236-5.2236-7.4311-6.9366-.4163-.7853-.7664-2.2355-.995-4.1196-.3049-2.5128-.2731-3.3198.2334-5.9483 1.9851-10.2965 7.4337-18.5854 15.7218-23.9163 4.568-2.9385 8.3232-4.173 12.7826-4.2027 2.1239-.0143 3.5247.2371 6.8767 1.234Z"/>
</svg>
