<svg xmlns="http://www.w3.org/2000/svg" fill="none" viewBox="0 0 1041 720">
  <path stroke="#681E82" stroke-width="5" d="M229 78h565v565H229z"/>
  <path stroke="#681E82" stroke-width="12" d="M263 112h497v497H263z"/>
  <path fill="#681E82" stroke="#681E82" stroke-width="8" d="M157 360 511 5l354 355-354 354z"/>
  <path stroke="#FFF9E4" stroke-width="6" d="M178 361 512 26l335 335-335 334z"/>
  <path fill="#FFF9E4" d="m483 41 29-29 29 29-29 29z"/>
  <path stroke="#681E82" stroke-width="5" d="m487 51 25-26 26 26-26 25z"/>
  <path fill="#FFF9E4" d="m801 361 29-29 29 29-29 29zM483 677l29-29 29 29-29 29zM163 361l29-29 29 29-29 29z"/>
  <path stroke="#681E82" stroke-width="5" d="m177 361 26-26 25 26-25 25zM796 361l26-26 25 26-25 25zM487 670l25-26 26 26-26 25z"/>
  <path fill="#FFF9E4" d="m457 290-1-1-1-1-1-1h1l3 2 1 1-1 1-1-1Zm-3 2v-1l-1-1-1-1-1-1h1l3 2 1 1-1 1h-1Zm-11 5-2-2-3-3h1a11 11 0 0 1 5 3l1 1v2h-1l-1-1Zm-1 16h-1l-2-1-1-1-1-1v-1h1l1 1h1l4-1a42 42 0 0 0 15-15v-1h1v1l-4 6-5 6-9 7Zm-1-11v1l-1-1-2-3-3-2h-1l1-1 3 2 3 2v2ZM527 314a91 91 0 0 1-3-10v-2h-1l-3 1-2 1h-1l-1-1-2-1v-1h1l2 1 5-1 1-1-1-3-1-2-1-1h-1 1v-1l2 1 2 1a28 28 0 0 0 0 5l1 1a71 71 0 0 0 10-3h1l1 1v2h-1a40 40 0 0 0-2 2l-3 3-3 1h-1 1l4-3 1-3h1l-1-1-6 1-1 1h-1v2a59 59 0 0 0 4 10l-1 1v1l-1-1v-1ZM596 313l-2 1v-1l1-1 3-1a38 38 0 0 0 8-7v-2l-6-4-1-1h2a58 58 0 0 1 7 4l3-5 1-4-1-2v-1h1l2 1 1 2v1l-1 2-4 7v1l5 6v2l-1 1-2-2-3-5h-1l-2 1c-3 3-6 6-10 7ZM697 291l-1-1v-1l-2-1h1l3 1 1 1-1 1h-1Zm-19 24h-1l1-1 8-2 5-6 2-8-1-1h-13v3a12 12 0 0 1 0 3v2h-2v-3l-1-5-1-2h-1 1v-1h1a3 3 0 0 1 2 1l1 1h4l2-1a72 72 0 0 0-1-4v-1h-1v-1h1l2 1 1 1v2a77 77 0 0 0 0 2l1 1 4-1h3l2 2-1 1-1 1v2a16 16 0 0 1-9 12l-8 2Zm16-22v-1l-1-1-1-1h-1 1l3 1 1 2h-2Z"/>
  <path fill="#FFF9E4" fill-rule="evenodd" d="m695 330-1 5v9l-1 5-1 2h-17l-19-1-4-2-3-2c-3 0-3 0-3 16 0 15 0 22-3 30-2 8-5 13-11 18-3 2-3 4-1 4l7-4c6-5 11-13 13-21l3-24v-8c1-3 2-3 21-3h19l2 8a113 113 0 0 0 8 28c0 1-8 9-14 13-3 2-4 4-1 4 2 0 8-3 15-9l3-3 3 3c5 7 12 13 17 13 3 1 7 0 8-2 2-1 2-1 2-3l-2-4 1-10v-10c-2-1-3 0-3 4-3 12-4 17-6 17-2 1-10-4-13-10-3-3-3-2 2-10l4-8c4-8 4-8 6-8l2-1-3-4c-3-2-4-2-6-1s-2 2-4 8l-6 13-1-1-6-23 1-3 16-1h16l1-1c1-2 1-4-1-6l-7-3-5 3-4 3-8 1c-9 0-9 0-10-8l1-10c2-3 1-3-3-4l-4 1Zm-249 2c-3 1-3 1-3 12l-2 11-10 1a287 287 0 0 1-26-1v2l2 3h33c2 0 3 3 3 12-1 12 1 11-16 11a343 343 0 0 1-31 0c-2 0 1 6 3 6l5-1c4-2 4-2 19-2l15 1c2 1 1 2-2 7-8 11-21 22-37 29l-7 4 1 1c0 1 1 1 6-1a106 106 0 0 0 41-26c2-1 2-1 2 19l1 19h1c1 1 4 0 5-2l1-19c0-21 0-21 5-16 10 11 17 18 24 22 5 3 10 6 11 5l1-2c1-2 5-4 7-4l3-1-6-2c-12-4-26-13-37-23-6-6-7-8-6-10l23-1c24 0 24 0 24-3 0-1-1-3-4-5s-5-2-11 3l-4 2a217 217 0 0 1-29-1l-1-11 1-11 18-1a716 716 0 0 0 17-2c1-1 1-2-2-5s-7-3-10 0l-3 2-2 2h-9c-8 0-8 0-9-2l-1-9v-9h1l5 1h1l-2-3-4-3-5 1Zm88 0-2 3-1 10-1 10-8 1c-8-1-9 0-9 2s1 2 14 2h14l2 1-1 5-7 12c-6 10-13 16-22 21-3 1-3 2-3 3 0 3 8 0 16-6 2-2 4-3 5-2v43h2c1 1 3 0 5-2l1-22v-22h2l11 10c3 3 3 4 5 4 3 0 3-5 1-9l-13-9-5-4 3-5 8-15 3-3 3-3c1-2-3-6-6-7-2-1-5 0-7 2-5 4-5 4-5-8v-9h1c2-1 2-1 1-2-1-2-5-2-7-1Zm68 2-2 1h-26l-2-1c-3-2-7-2-7-1l-1 37v36l2 1h3c2-1 2-2 3-5l2-2c3 0 3 0 3 6-2 17-9 27-21 30-3 1-4 2-3 3l8-2c14-4 21-14 23-30 1-6 2-7 4-7h1v15l1 16c2 4 6 6 12 7s13 0 17-2c3-2 4-6 2-9l-1-7-2-7-2 8v8l-2 1c-4 4-13 3-16-1l-1-15c0-14 0-14 3-14 2 1 3 2 3 4 0 4 4 5 7 2l1-2v-62l1-1c2-4 3-4 1-6l-7-3-4 2Zm104-1 2 3 4 6 3 4c2 0 4 0 5-2l-1-3c-1-3-4-6-8-8-3-1-5-2-5 0Zm-104 6 1 12v11l-4-3-5-5-7-1c-5 0-6 0-11 5l-4 3a139 139 0 0 1 1-22l1-1h14l14 1Zm-17 17c-2 2-4 7-4 11v6l1 3s-4-2-6-5c-3-3-4-4-3-6l10-9h2Zm9 1c2 2 7 7 8 10 1 1 1 2-3 5l-7 5h-1l1-2c3-5 3-13 0-17l-1-2 3 1Zm88 6-4 2h-21v3h35c2-1 1-3-1-5-3-3-5-3-9 0Zm-101 16 7 2c4 0 4 0 9-3l6-3v20c-1 2-3 2-16 2l-14-1-1-12v-12l3 3 6 4Zm99-4-7 1-7-1c-3-2-5-2-6-1l-1 12 1 13 2 1c2 0 5-3 5-4l1-1 5-1c6 0 6 0 7 3l3 3 3-2 2-1v-13l2-2 1-3c0-2-5-6-8-6l-3 2Zm0 6v8c-1 1-3 2-7 1-6 0-6-1-6-5 0-5 1-6 8-5l5 1Zm-19 28v8c0 10 2 14 7 18 6 4 21 5 37 4 10-1 13-3 14-6 0-2 0-2-3-5s-4-3-4-6c-1-4-2-6-4-5v3c1 9 0 11-6 12l-12 1c-16-1-21-4-22-16l1-5 1-2-6-2-3 1Zm18 0c0 1 0 2 4 5l8 7c4 4 5 4 7 2 2-1 2-3 0-5-2-4-7-6-14-8-4-2-4-2-5-1Zm35 3c-1 0 0 2 3 4l8 8c4 4 5 5 7 5 1 0 3-1 3-3s-2-5-5-7c-5-5-15-9-16-7Zm-61 2-2 4c-2 5-4 7-9 11l-4 4v4h5c2 0 6-4 7-6 5-7 7-17 4-18l-1 1ZM303 301v4c0 4-3 13-6 20-4 10-4 11-4 20l1 14c1 8 2 10 5 14l3 3h-3c-9 0-17 5-31 19a90 90 0 0 1-11 10l3 1 14 3c9 2 10 3 14 2 4 0 5 0 9-2l5-2-1 3c-4 9-7 13-10 14l-2 2c-1 2 1 3 11 3h8l4-2 8-6 7-10 3 8c4 13 6 17 9 20l6 1c4 0 5-1 5-2l-2-4c-4-4-7-11-9-17-2-5-7-18-6-19l4 4c6 6 8 7 14 8l9-1h13l5 1c1-1 1-2-1-4l-3-6c-2-5-4-8-8-12l-11-6-1-1 3-2c6-5 12-12 14-17a293 293 0 0 0 9-27c0-1-1-2-3-1l-5 2-23 6-11 8-2 2-1-3c-2-12-5-16-15-27-8-8-11-12-13-18l-2-3h-2Zm14 22 10 12c3 5 6 16 6 23 0 6-3 15-7 20l-5 5-5-17a197 197 0 0 1-6-41c-2-1-2 1-2 6l3 28a104 104 0 0 0 6 24l-10-6c-4-3-7-8-8-11-3-7-4-24-2-30l3-10 4-12 2-5 2 4c1 2 4 6 9 10Zm59 17a204 204 0 0 1-10 25l-12 12c-6 4-16 8-22 8-4 0-4-1 0-3 9-7 16-13 24-23 3-4 6-8 9-9v-3c-3 0-7 4-12 11a103 103 0 0 1-23 21l1-4a54 54 0 0 0 6-18l1-2 10-9c3-2 15-5 22-6 5-2 6-2 6 0Zm-71 40 6 4-3 1c-8 1-21 5-32 10l-8 4 6-5 15-12 8-2h8Zm53 6c5 3 10 9 14 16l1 4-4-1-9 1c-6 1-11 1-14-1-3-1-7-6-15-14l-3-3h2l13 2 18 9c5 3 6 3 6 1l-7-5-17-8h-2l2-1c5-2 10-2 15 0Zm-40 2-8 9-13 9c-7 3-9 3-21 0l-8-2 5-4 6-3 2 2c3 2 7 4 10 4 4 0 7-1 10-3 4-3 6-5 6-9l1-3h10Zm7 5v15c-1 3-2 6-7 11-6 5-9 6-16 7-6 0-7 0-5-3l8-14 2-5a1627 1627 0 0 0 12-11l-1 4c-2 9-5 14-9 19-4 3-4 5-2 5 1 1 5-3 8-8 2-3 4-8 5-14l4-10 1 4Zm10 24c2 6 6 13 9 17l1 3-4-1-3-4-4-10a351 351 0 0 1-3-19l4 14Z" clip-rule="evenodd"/>
  <path fill="#681E82" fill-rule="evenodd" d="m50 555-4 1a45 45 0 0 0-21 16l-1 3c-3 6-5 12-5 17v3l-2 2-8 10-3 5c-1 3-2 8-1 14 2 7 3 10 7 13l2 2-2 2a26 26 0 0 0-5 7v13a29 29 0 0 0 13 17l13 2c8-1 18-3 24-6l11-7c3-3 9-9 11-14l4-4 1 1c7 2 16 1 23-3 4-3 9-7 13-13l2-3h1c4 0 7 2 12 5 6 5 14 6 21 4l9-6a11538 11538 0 0 1 10-9c2-2 4-3 13-4 6 0 7-1 9-2 5-1 7-4 9-9l1-9c-1-2 1-7 5-11l3-5 3-5c2-3 3-8 3-10 0-1-1-3-2-2l-7 5-12 8h-7c-3-1-8-2-10-1-3 0-7 2-9 5l-5 4-7-4c-12-10-15-13-18-14-2-2-8-4-11-4-3-1-7 0-11 1l-3 1-1-1-8-5h-7l-9 2a53 53 0 0 0-14 7l-1-2c0-7-3-11-8-14l-13-4-8 1Zm14 5 5 2c4 2 6 7 5 13v4l-1 3c0 2 3 3 5 1l1-1 3-3c5-3 9-6 13-7l7-2c5 0 6 0 10 2l5 4 1 5c-1 3-2 5-5 6-2 2-4 2-6 1-3-1-4-5-3-7h2l2-2h-5c-2 2-3 4-1 7 2 4 4 5 8 5l4-2c3-1 4-3 6-6v-4l1-3 8-3 10 2 8 5a451 451 0 0 0 13 12c4 3 6 4 10 3 3 0 4-1 7-4l4-4 2-1h3l5 2h5l6-1 5-2 6-4-5 8c-4 6-7 11-6 15 0 4-2 9-4 11s-4 3-11 3a77 77 0 0 0-10 2l1-3c1-7-1-13-7-16h-4l-5 1c-4 3-6 9-4 14l4 3h5l4-3v-6c-2-2-5-3-7-2-2 2-2 5-1 6 1 2 3 1 2-1s1-4 3-3l2 4-4 3h-3c-4-2-5-8-1-11 2-3 5-3 8-2s5 3 6 7l-1 4c-1 6-3 8-7 12a943 943 0 0 0-15 11c-4 1-11-1-16-4-5-4-9-5-12-6h-2l3-2c3-2 5-4 6-8l2-4v-3l-2-6c-2-5-5-7-9-8l-7-1c-5 1-8 1-11 3-5 3-8 8-8 13 0 2 0 3 2 5 1 2 3 4 6 5l5 1 5-1c2-1 3-3 3-6v-3c-1 0-2 0-2 2 0 4-2 6-6 6-6 0-11-4-10-9 0-3 2-6 3-8l8-5h10c5 1 9 5 10 11v5l-3 7-4 3-9 9c-1 3-5 7-9 9-6 4-13 6-19 4l-4-2 2-12c0-10-2-13-9-17-6-3-11-4-16-4-7 1-11 4-14 10-2 5-3 9-2 13 1 5 1 6 3 7 1 2 4 3 7 4l8-1c5-2 8-8 8-15v-4l-1-1c-3-4-7-4-11-1l-2 5 3 5 2 1 1-2-1-1c-3-1-3-5 0-7s4-1 6 2c1 2 1 7-1 11-1 3-3 5-5 5-3 1-10 0-12-1l-2-6c-1-5-1-8 1-12 1-4 2-5 6-7 6-3 11-3 17-1l6 4c3 2 4 4 5 8 1 7 0 14-3 19-4 7-8 12-13 17l-12 8-15 4c-11 2-16 1-21-3l-5-8-2-6 1-5 1-3 6-8c4-1 5-4 1-5-1 0-5-2-6-4l-4-8v-10c4-9 7-14 11-16h3l8 6 6 1c6 0 13-3 16-7l6-8v-8l-6-6c-4-2-10-2-12-1l-4 5 1 6c1 3 4 4 6 4l1-2-2-1c-3 0-5-4-3-7 1-2 2-3 5-3l8 2c2 1 3 4 4 6l1 2-1 3-4 5-5 5c-6 3-12 4-16 2l-8-7-1-4v-6c3-10 9-18 18-24 5-2 9-4 14-4l8 1Z" clip-rule="evenodd"/>
  <path fill="#F5EDE3" d="m64 560 5 2c4 2 6 7 5 13v4l-1 3c0 2 3 3 5 1l1-1 3-3c5-3 9-6 13-7l7-2c5 0 6 0 10 2l5 4 1 5c-1 3-2 5-5 6-2 2-4 2-6 1-3-1-4-5-3-7h2l2-2h-5c-2 2-3 4-1 7 2 4 4 5 8 5l4-2c3-1 4-3 6-6v-4l1-3 8-3 10 2 8 5a451 451 0 0 0 13 12c4 3 6 4 10 3 3 0 4-1 7-4l4-4 2-1h3l5 2h5l6-1 5-2 6-4-5 8c-4 6-7 11-6 15 0 4-2 9-4 11s-4 3-11 3a77 77 0 0 0-10 2l1-3c1-7-1-13-7-16h-4l-5 1c-4 3-6 9-4 14l4 3h5l4-3v-6c-2-2-5-3-7-2-2 2-2 5-1 6 1 2 3 1 2-1s1-4 3-3l2 4-4 3h-3c-4-2-5-8-1-11 2-3 5-3 8-2s5 3 6 7l-1 4c-1 6-3 8-7 12a943 943 0 0 0-15 11c-4 1-11-1-16-4-5-4-9-5-12-6h-2l3-2c3-2 5-4 6-8l2-4v-3l-2-6c-2-5-5-7-9-8l-7-1c-5 1-8 1-11 3-5 3-8 8-8 13 0 2 0 3 2 5 1 2 3 4 6 5l5 1 5-1c2-1 3-3 3-6v-3c-1 0-2 0-2 2 0 4-2 6-6 6-6 0-11-4-10-9 0-3 2-6 3-8l8-5h10c5 1 9 5 10 11v5l-3 7-4 3-9 9c-1 3-5 7-9 9-6 4-13 6-19 4l-4-2 2-12c0-10-2-13-9-17-6-3-11-4-16-4-7 1-11 4-14 10-2 5-3 9-2 13 1 5 1 6 3 7 1 2 4 3 7 4l8-1c5-2 8-8 8-15v-4l-1-1c-3-4-7-4-11-1l-2 5 3 5 2 1 1-2-1-1c-3-1-3-5 0-7s4-1 6 2c1 2 1 7-1 11-1 3-3 5-5 5-3 1-10 0-12-1l-2-6c-1-5-1-8 1-12 1-4 2-5 6-7 6-3 11-3 17-1l6 4c3 2 4 4 5 8 1 7 0 14-3 19-4 7-8 12-13 17l-12 8-15 4c-11 2-16 1-21-3l-5-8-2-6 1-5 1-3 6-8c4-1 5-4 1-5-1 0-5-2-6-4l-4-8v-10c4-9 7-14 11-16h3l8 6 6 1c6 0 13-3 16-7l6-8v-8l-6-6c-4-2-10-2-12-1l-4 5 1 6c1 3 4 4 6 4l1-2-2-1c-3 0-5-4-3-7 1-2 2-3 5-3l8 2c2 1 3 4 4 6l1 2-1 3-4 5-5 5c-6 3-12 4-16 2l-8-7-1-4v-6c3-10 9-18 18-24 5-2 9-4 14-4l8 1Z"/>
  <path fill="#681E82" fill-rule="evenodd" d="M139 426c-15 2-27 9-33 16a93 93 0 0 0-11 23l-4-1c-7-3-13-1-23 6-8 7-12 12-15 18-2 5-2 6-2 12v10c-1 4-7 13-10 16-5 4-8 8-10 13-3 6-4 10-3 16 2 9 5 15 10 19 7 4 19 10 24 11l22 1c7 0 21-5 24-8 2-1 2 0 8 1 12 4 25 3 32-2 5-3 14-6 29-7a73 73 0 0 0 42-15l2-2 10-1 9-1 9-3 18-9 10-4 7-1c9 0 13 0 21 4 7 3 11 6 15 10 4 3 6 4 7 2v-6c-1-8-6-17-15-27-5-6-9-8-23-13-21-9-22-9-27-14l-8-9c-1-3-3-5-5-6l-10-5c-2 0-3-2-5-6l-7-8c-4-4-14-9-19-9-5-1-12 0-19 2h-7c0-3-6-11-10-15-9-9-18-11-33-8Zm19 8c5 1 8 4 12 8l3 4v23c-2 4-6 10-12 16-9 8-10 8-19 9s-11 0-14-5c-4-8-2-18 4-21 2-1 3-2 6-1l6 2c2 2 2 2 2 6 0 3 1 4 3 1s1-6-2-9c-3-2-9-5-12-4-6 0-11 6-12 13-2 8 2 18 7 21 6 2 20 1 25-2 4-3 14-13 17-18 4-6 5-9 6-14v-4l10-3 15-2c17 2 26 10 26 23 0 6-2 9-7 12-3 2-4 2-10 3h-8c-3-1-6-4-7-7v-5c2-5 7-4 11 2 3 3 4 4 3 0-1-5-6-9-11-9s-8 5-7 11c1 5 4 9 8 11l10 1c8-1 11-2 15-5 3-3 6-8 7-12 0-3 0-3 2-3l6 3c4 1 5 2 7 5 5 8 12 15 20 19l6 3 15 6c7 1 13 5 17 9l11 15-7-3-11-5-14-1h-8l-11 4a212 212 0 0 0-24 12c-3 1-12 3-16 2-4 0-4-1-2-5l2-6c-1-4-8-17-13-22-3-3-9-6-12-7-7-2-15 2-19 11-3 6-4 9-3 14 1 8 5 13 12 16 5 1 8 1 11-1 2-2 2-3 3-8 0-4-1-7-3-9-3-3-4-1-1 4 2 4 2 4 1 7-2 5-5 6-12 3-6-3-8-7-8-17 0-4 0-5 5-12 4-5 10-7 16-4s10 7 16 16l2 8c1 5-1 8-6 14-6 7-9 9-18 12-6 2-8 2-19 3l-15 1-18 6c-8 4-9 4-15 4-6 1-11 0-15-2l-2-1 4-5c12-11 20-28 19-41 0-5-1-5-3-11-6-10-12-14-22-14l-9 1c-9 3-19 11-21 18-2 3-2 4-1 9 1 8 5 14 12 16 10 3 26-6 27-14 1-5-3-11-8-13-3-2-10-2-10-1l4 3c6 2 7 2 9 5 3 4 1 9-6 13-10 6-19 5-23-3-2-4-3-7-2-11 2-10 14-18 27-19 9-1 14 3 19 13 5 8 5 13 0 26-6 13-20 28-33 34-5 2-6 2-13 2a66 66 0 0 1-19-1c-4 0-6-1-12-4-12-6-17-11-17-20 0-7 3-13 9-19 8-7 13-15 15-21l1-12c1-11 1-14 5-18 3-4 9-8 13-11 4-2 9-2 14 0 4 2 5 3 6 7 1 3 3-1 3-5-1-2 3-12 5-17 3-6 5-9 10-13 10-8 16-11 29-11l13 1Z" clip-rule="evenodd"/>
  <path fill="#F5EDE3" d="M158 434c5 1 8 4 12 8l3 4v23c-2 4-6 10-12 16-9 8-10 8-19 9s-11 0-14-5c-4-8-2-18 4-21 2-1 3-2 6-1l6 2c2 2 2 2 2 6 0 3 1 4 3 1s1-6-2-9c-3-2-9-5-12-4-6 0-11 6-12 13-2 8 2 18 7 21 6 2 20 1 25-2 4-3 14-13 17-18 4-6 5-9 6-14v-4l10-3 15-2c17 2 26 10 26 23 0 6-2 9-7 12-3 2-4 2-10 3h-8c-3-1-6-4-7-7v-5c2-5 7-4 11 2 3 3 4 4 3 0-1-5-6-9-11-9s-8 5-7 11c1 5 4 9 8 11l10 1c8-1 11-2 15-5 3-3 6-8 7-12 0-3 0-3 2-3l6 3c4 1 5 2 7 5 5 8 12 15 20 19l6 3 15 6c7 1 13 5 17 9l11 15-7-3-11-5-14-1h-8l-11 4a212 212 0 0 0-24 12c-3 1-12 3-16 2-4 0-4-1-2-5l2-6c-1-4-8-17-13-22-3-3-9-6-12-7-7-2-15 2-19 11-3 6-4 9-3 14 1 8 5 13 12 16 5 1 8 1 11-1 2-2 2-3 3-8 0-4-1-7-3-9-3-3-4-1-1 4 2 4 2 4 1 7-2 5-5 6-12 3-6-3-8-7-8-17 0-4 0-5 5-12 4-5 10-7 16-4s10 7 16 16l2 8c1 5-1 8-6 14-6 7-9 9-18 12-6 2-8 2-19 3l-15 1-18 6c-8 4-9 4-15 4-6 1-11 0-15-2l-2-1 4-5c12-11 20-28 19-41 0-5-1-5-3-11-6-10-12-14-22-14l-9 1c-9 3-19 11-21 18-2 3-2 4-1 9 1 8 5 14 12 16 10 3 26-6 27-14 1-5-3-11-8-13-3-2-10-2-10-1l4 3c6 2 7 2 9 5 3 4 1 9-6 13-10 6-19 5-23-3-2-4-3-7-2-11 2-10 14-18 27-19 9-1 14 3 19 13 5 8 5 13 0 26-6 13-20 28-33 34-5 2-6 2-13 2a66 66 0 0 1-19-1c-4 0-6-1-12-4-12-6-17-11-17-20 0-7 3-13 9-19 8-7 13-15 15-21l1-12c1-11 1-14 5-18 3-4 9-8 13-11 4-2 9-2 14 0 4 2 5 3 6 7 1 3 3-1 3-5-1-2 3-12 5-17 3-6 5-9 10-13 10-8 16-11 29-11l13 1Z"/>
  <path fill="#681E82" fill-rule="evenodd" d="m184 528-3 1c-4 1-9 4-12 8l-7 8-2 3c-2 6-4 12-4 17v4l-1 1c-3 2-6 6-8 11l-2 4c-2 3-2 8-1 14 1 7 3 10 6 13l2 2-2 2a27 27 0 0 0-4 8l-1 12c1 5 4 9 8 13 2 3 2 3 5 4 4 2 6 3 11 2 8 0 17-2 22-5l10-7c3-3 8-9 10-14l3-4 2 1c6 2 14 1 20-3 4-3 8-7 12-13l2-3h1l11 5c5 5 13 6 19 4l8-6a7981 7981 0 0 1 9-8c2-3 4-4 12-5l8-1c4-2 7-5 8-9l1-9c0-3 1-8 5-12l2-5 3-5c2-3 3-8 3-10 0-1-1-3-2-2l-6 5-11 8h-7l-9-2c-2 1-6 3-8 6s-3 3-5 4c-2 0-2-1-6-4l-16-15-10-4-10 1-3 1-1-1-7-4h-7l-8 1a46 46 0 0 0-13 8v-3c-1-7-3-11-8-14l-11-4-8 1Zm12 5 6 2c3 2 5 7 4 13v4l-1 3c0 2 3 3 4 1l1-1 4-3 11-7 7-1c4-1 5-1 9 1l4 5 1 5-4 6-6 1c-2-1-4-6-2-7l1-1 2-1c0-2-3-2-4 0-3 1-3 4-1 7 1 3 3 5 7 5l4-2c2-2 4-3 5-6v-8l8-2c2 0 5 0 9 2l7 5a433 433 0 0 0 13 12c3 3 5 4 8 3 3 0 4-1 7-4l4-4 2-1h2l5 2 4 1 5-1 5-3 5-4-4 8c-4 6-6 11-6 15 1 5-1 10-3 12-2 1-3 2-10 3a63 63 0 0 0-9 1l1-3c1-7-1-13-7-16h-4l-4 1c-4 3-5 9-3 14l3 3h5l4-3c1-2 0-3-1-6-1-2-4-3-6-2-2 2-2 5-1 7 1 1 3 0 2-2s1-4 3-3l1 4-3 3h-3c-3-1-4-8-1-11 2-3 5-3 7-2 3 1 5 3 6 7l-1 5c-1 5-2 7-6 11a874 874 0 0 0-14 11c-4 1-10 0-14-4-5-4-8-5-11-6h-2l2-2c4-2 5-4 6-8l2-4-1-3-1-6c-2-5-5-7-9-8l-6-1c-4 0-7 1-10 3-4 3-7 8-7 13l2 4c1 3 3 5 5 6l5 1 4-1c3-2 4-3 4-7l-1-2c-1-1-1 0-2 2 0 4-1 5-5 6-5 0-10-4-9-10 0-2 1-6 3-8l7-4h9c5 1 8 5 9 11v5l-3 7-3 3c-3 2-6 5-8 9l-8 9c-6 4-12 6-18 4-4-1-4-1-3-3l1-11c0-10-2-13-8-17s-10-5-14-4c-7 1-11 3-13 9s-3 9-2 14c1 4 1 5 3 7 1 2 3 3 6 3h8c4-2 7-8 7-16v-3l-2-2c-2-4-6-4-9 0l-2 4 2 5 3 1 1-1-1-1c-4-1-3-6 0-8 2-1 4-1 5 2 1 2 1 8-1 12l-4 5c-3 1-9 0-11-2-1-1-2-2-2-5-2-5-1-8 0-13 2-4 3-5 6-7 5-3 10-3 16 0l5 3c3 3 4 4 5 9 1 7 0 14-3 19l-12 17-11 8-13 4c-10 1-15 0-19-4l-5-8-1-6v-5l1-3c1-3 3-6 6-7 3-2 4-4 0-5l-5-4c-1-2-3-4-4-9v-10c4-9 7-13 10-16h3l7 7h5c6 0 12-2 15-6l6-8c1-2 0-6-1-9l-5-6c-4-1-9-2-11-1l-4 5 1 6c1 3 4 5 6 4v-2h-1c-3-1-5-5-3-8 1-2 2-3 4-3l8 2 4 6v3l-1 2-3 5-5 5c-5 3-10 4-14 2-2 0-6-5-7-7l-1-4v-6c2-10 7-18 16-24 4-3 8-4 13-4l6 1Z" clip-rule="evenodd"/>
  <path fill="#F5EDE3" d="m196 533 6 2c3 2 5 7 4 13v4l-1 3c0 2 3 3 4 1l1-1 4-3 11-7 7-1c4-1 5-1 9 1l4 5 1 5-4 6-6 1c-2-1-4-6-2-7l1-1 2-1c0-2-3-2-4 0-3 1-3 4-1 7 1 3 3 5 7 5l4-2c2-2 4-3 5-6v-8l8-2c2 0 5 0 9 2l7 5a433 433 0 0 0 13 12c3 3 5 4 8 3 3 0 4-1 7-4l4-4 2-1h2l5 2 4 1 5-1 5-3 5-4-4 8c-4 6-6 11-6 15 1 5-1 10-3 12-2 1-3 2-10 3a63 63 0 0 0-9 1l1-3c1-7-1-13-7-16h-4l-4 1c-4 3-5 9-3 14l3 3h5l4-3c1-2 0-3-1-6-1-2-4-3-6-2-2 2-2 5-1 7 1 1 3 0 2-2s1-4 3-3l1 4-3 3h-3c-3-1-4-8-1-11 2-3 5-3 7-2 3 1 5 3 6 7l-1 5c-1 5-2 7-6 11a874 874 0 0 0-14 11c-4 1-10 0-14-4-5-4-8-5-11-6h-2l2-2c4-2 5-4 6-8l2-4-1-3-1-6c-2-5-5-7-9-8l-6-1c-4 0-7 1-10 3-4 3-7 8-7 13l2 4c1 3 3 5 5 6l5 1 4-1c3-2 4-3 4-7l-1-2c-1-1-1 0-2 2 0 4-1 5-5 6-5 0-10-4-9-10 0-2 1-6 3-8l7-4h9c5 1 8 5 9 11v5l-3 7-3 3c-3 2-6 5-8 9l-8 9c-6 4-12 6-18 4-4-1-4-1-3-3l1-11c0-10-2-13-8-17s-10-5-14-4c-7 1-11 3-13 9s-3 9-2 14c1 4 1 5 3 7 1 2 3 3 6 3h8c4-2 7-8 7-16v-3l-2-2c-2-4-6-4-9 0l-2 4 2 5 3 1 1-1-1-1c-4-1-3-6 0-8 2-1 4-1 5 2 1 2 1 8-1 12l-4 5c-3 1-9 0-11-2-1-1-2-2-2-5-2-5-1-8 0-13 2-4 3-5 6-7 5-3 10-3 16 0l5 3c3 3 4 4 5 9 1 7 0 14-3 19l-12 17-11 8-13 4c-10 1-15 0-19-4l-5-8-1-6v-5l1-3c1-3 3-6 6-7 3-2 4-4 0-5l-5-4c-1-2-3-4-4-9v-10c4-9 7-13 10-16h3l7 7h5c6 0 12-2 15-6l6-8c1-2 0-6-1-9l-5-6c-4-1-9-2-11-1l-4 5 1 6c1 3 4 5 6 4v-2h-1c-3-1-5-5-3-8 1-2 2-3 4-3l8 2 4 6v3l-1 2-3 5-5 5c-5 3-10 4-14 2-2 0-6-5-7-7l-1-4v-6c2-10 7-18 16-24 4-3 8-4 13-4l6 1Z"/>
  <path fill="#681E82" fill-rule="evenodd" d="m991 199 4 1a45 45 0 0 1 22 15l1 3c4 5 6 11 6 16v4l2 1c3 2 7 6 9 10l3 5c2 3 3 7 2 13-1 8-2 11-6 14l-2 2 2 1a26 26 0 0 1 5 8c2 2 2 8 2 12a29 29 0 0 1-13 18c-4 2-6 2-12 2-9 1-18-1-24-4l-12-6a80 80 0 0 1-16-17l-1 1c-6 3-16 2-23-2-4-2-9-6-14-12l-2-2h-1c-4 0-7 2-12 6s-14 6-20 5l-10-6a10333 10333 0 0 0-10-8c-3-3-5-3-13-3l-10-1c-4-2-7-4-9-9l-1-9c0-3-3-7-6-11l-4-5-3-5c-2-2-4-7-4-9s1-3 2-3l7 5 13 7h7l10-2c2 0 7 2 9 5 3 3 4 3 6 3s2 0 6-4c11-11 14-14 17-15l11-5c2-1 7 0 11 1h3l1-1 8-5h7l9 1a53 53 0 0 1 15 7v-3c0-7 2-12 7-15l13-4h8Zm-13 6-6 3c-3 2-5 7-4 12l1 5v2c1 3-2 4-4 1l-1-1-4-2c-4-3-8-5-13-6l-7-1c-5-1-6 0-10 2-3 2-4 2-5 5v5c1 2 2 4 5 5 2 2 4 2 6 1 3-1 4-6 2-7l-1-1-2-1c0-1 2-2 4 0 3 1 3 3 2 7-2 3-4 5-8 5l-4-1-6-6-1-5v-3l-9-1c-2 0-5 0-9 2l-8 5a463 463 0 0 1-13 13c-4 3-5 4-9 4-3 0-4-1-8-4l-4-3-2-1h-3l-5 1-5 2-6-1-5-2-6-4 6 8c4 5 7 10 7 14-1 5 1 10 4 11 2 2 4 2 11 3a77 77 0 0 1 10 1l-1-3c-2-7 0-13 6-16l4-1 5 1c4 3 7 9 5 13l-4 4h-5c-3 0-4-1-4-3v-5c1-3 4-4 6-3 2 2 3 5 2 7-1 1-3 0-2-2s-1-4-3-2l-2 3c0 1 2 3 4 3h3c4-2 4-8 0-11-2-2-5-3-8-2-3 2-5 4-5 8l1 4c1 6 3 8 7 11a965 965 0 0 1 16 10c5 1 11-1 16-4 5-4 8-6 12-7h1l-2-2c-4-2-5-4-7-8l-2-3v-4l1-5c2-5 5-8 9-10h7c5 0 7 0 11 2 5 3 8 7 8 12l-1 5c-1 3-3 5-6 6l-5 1-5-1c-2-1-3-3-3-6v-3c1 0 2 1 2 3 0 3 2 5 6 5 6 0 11-5 10-10l-4-8-8-4h-10c-6 2-9 6-10 12l1 5 4 7 4 3 8 8 10 9c7 4 14 5 20 2 4-1 4-1 3-2l-2-12c0-9 1-13 8-17 6-4 10-5 15-5 8 0 12 3 15 9 3 5 4 8 3 13-1 4-1 5-3 7-1 2-3 3-7 4h-8c-5-2-8-7-8-15v-3l1-2c2-4 6-5 10-1l2 4c1 2 0 4-2 5l-2 1-2-1 2-1c3-1 3-6-1-8-3-1-4 0-6 3-1 2 0 7 2 11 2 3 3 5 5 5 3 1 10-1 12-2l2-6c1-5 1-8-2-12-1-4-2-5-6-7-6-3-11-2-17 1l-6 3c-3 3-4 5-4 9-1 7 0 14 3 19l15 16 12 7c4 1 9 3 15 3 11 1 17 0 21-4l5-8 1-6-1-5-1-4c-1-2-4-5-7-6-4-2-5-4-1-6 1 0 5-2 6-4l3-8c1-5 1-8-1-10-4-9-8-13-12-15l-2-1-8 7-6 2c-6 0-13-2-17-6l-6-8v-8l6-6c4-2 9-3 11-2s4 3 4 5v6c-1 2-4 4-6 4l-1-2 2-1c3 0 5-4 3-7-2-2-3-3-5-3l-8 2c-2 2-4 4-4 7l-1 2 2 2 3 6 6 4c6 2 12 3 16 1l7-7 1-4-1-6c-2-10-9-18-18-23l-15-3-7 1Z" clip-rule="evenodd"/>
  <path fill="#F5EDE3" d="m978 205-6 3c-3 2-5 7-4 12l1 5v2c1 3-2 4-4 1l-1-1-4-2c-4-3-8-5-13-6l-7-1c-5-1-6 0-10 2-3 2-4 2-5 5v5c1 2 2 4 5 5 2 2 4 2 6 1 3-1 4-6 2-7l-1-1-2-1c0-1 2-2 4 0 3 1 3 3 2 7-2 3-4 5-8 5l-4-1-6-6-1-5v-3l-9-1c-2 0-5 0-9 2l-8 5a463 463 0 0 1-13 13c-4 3-5 4-9 4-3 0-4-1-8-4l-4-3-2-1h-3l-5 1-5 2-6-1-5-2-6-4 6 8c4 5 7 10 7 14-1 5 1 10 4 11 2 2 4 2 11 3a77 77 0 0 1 10 1l-1-3c-2-7 0-13 6-16l4-1 5 1c4 3 7 9 5 13l-4 4h-5c-3 0-4-1-4-3v-5c1-3 4-4 6-3 2 2 3 5 2 7-1 1-3 0-2-2s-1-4-3-2l-2 3c0 1 2 3 4 3h3c4-2 4-8 0-11-2-2-5-3-8-2-3 2-5 4-5 8l1 4c1 6 3 8 7 11a965 965 0 0 1 16 10c5 1 11-1 16-4 5-4 8-6 12-7h1l-2-2c-4-2-5-4-7-8l-2-3v-4l1-5c2-5 5-8 9-10h7c5 0 7 0 11 2 5 3 8 7 8 12l-1 5c-1 3-3 5-6 6l-5 1-5-1c-2-1-3-3-3-6v-3c1 0 2 1 2 3 0 3 2 5 6 5 6 0 11-5 10-10l-4-8-8-4h-10c-6 2-9 6-10 12l1 5 4 7 4 3 8 8 10 9c7 4 14 5 20 2 4-1 4-1 3-2l-2-12c0-9 1-13 8-17 6-4 10-5 15-5 8 0 12 3 15 9 3 5 4 8 3 13-1 4-1 5-3 7-1 2-3 3-7 4h-8c-5-2-8-7-8-15v-3l1-2c2-4 6-5 10-1l2 4c1 2 0 4-2 5l-2 1-2-1 2-1c3-1 3-6-1-8-3-1-4 0-6 3-1 2 0 7 2 11 2 3 3 5 5 5 3 1 10-1 12-2l2-6c1-5 1-8-2-12-1-4-2-5-6-7-6-3-11-2-17 1l-6 3c-3 3-4 5-4 9-1 7 0 14 3 19l15 16 12 7c4 1 9 3 15 3 11 1 17 0 21-4l5-8 1-6-1-5-1-4c-1-2-4-5-7-6-4-2-5-4-1-6 1 0 5-2 6-4l3-8c1-5 1-8-1-10-4-9-8-13-12-15l-2-1-8 7-6 2c-6 0-13-2-17-6l-6-8v-8l6-6c4-2 9-3 11-2s4 3 4 5v6c-1 2-4 4-6 4l-1-2 2-1c3 0 5-4 3-7-2-2-3-3-5-3l-8 2c-2 2-4 4-4 7l-1 2 2 2 3 6 6 4c6 2 12 3 16 1l7-7 1-4-1-6c-2-10-9-18-18-23l-15-3-7 1Z"/>
  <path fill="#681E82" fill-rule="evenodd" d="M894 76c15 1 28 7 34 14a93 93 0 0 1 13 22l4-1c7-4 12-2 23 5 8 6 13 11 16 17 2 4 2 5 2 12l1 9 11 16c5 3 8 7 11 12 3 6 4 10 4 16-1 9-4 15-9 19-6 5-19 12-24 13l-21 2c-7 0-21-3-25-6-1-1-2-1-7 1-12 5-25 5-33 0-4-3-14-5-29-5a73 73 0 0 1-42-12l-3-2-10-1h-9l-9-3-19-7-10-4h-7c-9 0-13 1-21 5l-14 10c-3 4-6 5-7 3v-6c1-8 5-17 13-27 4-7 8-9 22-15 20-10 22-11 26-16 3-2 6-7 7-9l5-7 10-5c2 0 3-2 5-6l6-9c4-4 13-9 18-10s13-1 20 1c6 1 7 1 7-1s4-10 8-15c9-10 18-12 33-10Zm-18 9c-5 2-9 4-12 9l-2 4v10l1 13c2 4 7 9 13 15 9 7 10 8 20 8 9 0 11-1 13-5 3-9 1-19-5-22h-6c-2 0-5 1-6 3-2 1-2 2-2 5 0 4 0 4-2 2-2-3-2-6 1-9 2-3 8-6 11-6 6 0 11 6 13 13 2 8-1 18-6 21s-19 3-25-1c-4-2-14-12-18-16-4-5-6-9-6-14v-4l-11-2c-10-1-11-2-15-1-17 3-25 11-24 24 0 6 2 9 7 12 3 2 5 2 10 2h9c3-1 5-4 6-8v-5c-3-4-7-3-11 3-3 4-4 4-4 0 1-5 6-9 11-9s9 5 8 10c-1 6-3 9-7 12l-10 1c-8 0-11-1-16-4-3-2-7-8-7-12l-2-2-7 3c-4 2-5 2-6 5-5 9-12 17-19 21l-6 3-15 7c-6 2-12 5-15 10-4 4-11 15-10 15l6-3 11-5 14-3h8l10 4a213 213 0 0 1 25 10c3 1 13 2 16 1 4-1 4-1 2-5l-2-6c0-4 7-17 12-23l11-8c7-2 15 2 20 10 3 6 4 9 4 15-1 8-4 13-11 16-5 2-8 2-11 0-2-2-3-3-4-8 0-4 0-7 3-9 3-3 3-1 1 4-2 3-2 4 0 7 2 5 5 5 11 2s8-8 7-18c0-4 0-5-6-11-4-5-10-6-15-3-7 3-10 7-15 17-2 3-3 5-2 8 0 5 1 8 7 14s10 8 18 10c7 2 9 2 20 2l14 1 19 5c8 2 9 3 15 3 7 0 11-1 15-4l2-1-4-5c-13-10-22-26-22-39 0-5 0-6 3-11 5-11 11-15 21-16l9 1c9 2 19 9 22 16 2 3 2 5 2 9-1 9-5 15-12 17-10 3-26-4-28-13-1-5 3-11 8-13 3-2 9-2 9-1l-3 2c-7 3-7 4-9 6-3 5 0 10 7 13 10 5 19 3 22-5 2-4 3-7 2-11-3-10-15-17-28-17-9 0-14 3-19 14-4 8-3 14 2 26 7 13 22 27 36 32 4 1 6 2 13 2a66 66 0 0 0 19-3c3 0 5-1 11-4 12-7 16-13 16-22 0-7-4-13-10-18-9-6-15-14-17-21l-1-11c-2-11-3-13-6-17l-14-11c-4-2-9-1-14 1-4 2-5 3-6 7 0 3-3 0-3-4 0-2-3-12-6-17-3-6-6-9-10-12-11-8-17-10-31-10-7 0-9 1-12 2Z" clip-rule="evenodd"/>
  <path fill="#F5EDE3" d="M876 85c-5 2-9 4-12 9l-2 4v10l1 13c2 4 7 9 13 15 9 7 10 8 20 8 9 0 11-1 13-5 3-9 1-19-5-22h-6c-2 0-5 1-6 3-2 1-2 2-2 5 0 4 0 4-2 2-2-3-2-6 1-9 2-3 8-6 11-6 6 0 11 6 13 13 2 8-1 18-6 21s-19 3-25-1c-4-2-14-12-18-16-4-5-6-9-6-14v-4l-11-2c-10-1-11-2-15-1-17 3-25 11-24 24 0 6 2 9 7 12 3 2 5 2 10 2h9c3-1 5-4 6-8v-5c-3-4-7-3-11 3-3 4-4 4-4 0 1-5 6-9 11-9s9 5 8 10c-1 6-3 9-7 12l-10 1c-8 0-11-1-16-4-3-2-7-8-7-12l-2-2-7 3c-4 2-5 2-6 5-5 9-12 17-19 21l-6 3-15 7c-6 2-12 5-15 10-4 4-11 15-10 15l6-3 11-5 14-3h8l10 4a213 213 0 0 1 25 10c3 1 13 2 16 1 4-1 4-1 2-5l-2-6c0-4 7-17 12-23l11-8c7-2 15 2 20 10 3 6 4 9 4 15-1 8-4 13-11 16-5 2-8 2-11 0-2-2-3-3-4-8 0-4 0-7 3-9 3-3 3-1 1 4-2 3-2 4 0 7 2 5 5 5 11 2s8-8 7-18c0-4 0-5-6-11-4-5-10-6-15-3-7 3-10 7-15 17-2 3-3 5-2 8 0 5 1 8 7 14s10 8 18 10c7 2 9 2 20 2l14 1 19 5c8 2 9 3 15 3 7 0 11-1 15-4l2-1-4-5c-13-10-22-26-22-39 0-5 0-6 3-11 5-11 11-15 21-16l9 1c9 2 19 9 22 16 2 3 2 5 2 9-1 9-5 15-12 17-10 3-26-4-28-13-1-5 3-11 8-13 3-2 9-2 9-1l-3 2c-7 3-7 4-9 6-3 5 0 10 7 13 10 5 19 3 22-5 2-4 3-7 2-11-3-10-15-17-28-17-9 0-14 3-19 14-4 8-3 14 2 26 7 13 22 27 36 32 4 1 6 2 13 2a66 66 0 0 0 19-3c3 0 5-1 11-4 12-7 16-13 16-22 0-7-4-13-10-18-9-6-15-14-17-21l-1-11c-2-11-3-13-6-17l-14-11c-4-2-9-1-14 1-4 2-5 3-6 7 0 3-3 0-3-4 0-2-3-12-6-17-3-6-6-9-10-12-11-8-17-10-31-10-7 0-9 1-12 2Z"/>
  <path fill="#681E82" fill-rule="evenodd" d="m855 180 4 1a48 48 0 0 1 20 15l1 3c3 5 5 12 6 17v3l1 2c3 1 6 5 9 10l2 4c2 3 3 8 2 14-1 7-2 10-5 14l-2 2 2 1a27 27 0 0 1 5 8l1 12c-1 5-3 9-7 14l-4 4c-4 2-6 3-12 3-8 0-16-2-22-4l-10-7-12-13-3-4-1 1c-6 3-14 2-21-2-4-2-8-6-12-12l-2-2h-2c-3 0-5 1-10 6-5 4-13 6-18 5a5369 5369 0 0 0-18-14c-3-3-5-3-13-3l-8-2c-4-1-7-4-8-8l-2-9c0-3-2-7-5-11l-3-5-4-5-3-10c0-1 1-3 2-2l7 4 11 8 6-1 9-2 9 6c2 2 3 3 5 3s2-1 6-5l15-15 10-5 10 1 2 1 1-1c1-2 6-5 8-5l6-1 8 1a46 46 0 0 1 14 7v-3c0-7 2-11 6-15l12-4h7Zm-12 7-5 2c-3 2-4 7-4 13l1 4 1 3c0 2-2 3-4 1l-1-1-4-3c-4-3-7-5-11-6l-7-1c-5 0-6 0-9 2s-3 3-4 5v5c0 3 2 4 4 6h6c2-1 3-5 2-7h-2l-1-1c0-2 2-2 3-1 3 1 3 4 2 7-1 4-4 5-7 5l-4-1c-3-1-4-3-5-6l-1-4v-3l-9-2-8 3a435 435 0 0 1-19 18c-3 3-5 4-8 3-3 0-4 0-7-3l-4-4-2-1-2 1-5 1-4 1-6-1-4-2-6-3 5 8c4 5 7 10 7 14s1 9 3 11 4 2 11 3a63 63 0 0 1 9 0l-1-2c-2-7 0-13 5-16l4-1 4 1c5 2 7 9 5 13l-3 4h-5l-4-3v-6c1-2 4-3 6-2s3 5 1 6c-1 2-2 1-1-1 0-2-2-4-3-3l-2 4 4 3h2c4-2 4-8 1-11s-5-3-7-2c-3 1-5 4-5 8v4c2 5 3 8 7 11a889 889 0 0 1 14 10c5 1 11-1 15-5s7-6 11-6h1l-2-2c-4-3-5-4-7-8l-1-4v-3l1-6c2-5 4-7 8-9l6-1c5 0 7 1 10 3 5 2 8 7 8 12l-1 4c-1 3-3 5-6 7l-4 1-5-1c-2-1-3-3-3-6v-3c1 0 2 0 2 2 0 4 2 5 6 5 5 0 9-4 9-9-1-3-2-7-4-8l-7-4h-10c-4 1-8 6-8 12v5l4 6 3 3 9 9 8 8c6 5 13 6 19 3l3-2c-2-3-3-7-3-12 0-10 1-13 8-18 5-3 9-5 13-4 7 0 11 3 14 9 2 5 3 8 2 13 0 4 0 5-2 7-1 2-3 3-6 4h-7c-5-2-8-8-8-15v-5c3-4 6-5 10-2l2 5c0 2 0 4-2 5l-2 1-1-1 1-1c3-1 2-6-1-8-2-1-4 0-5 3-1 2 0 7 2 11 1 3 3 4 4 5 3 1 9-1 11-2l2-6c1-5 0-8-2-13-1-3-2-4-5-6-6-3-10-3-16 1l-5 3c-3 3-4 4-4 9-1 7 0 14 3 19l13 16 11 7c4 2 9 3 14 3 10 2 15 0 19-4l5-8v-11l-1-4c-2-2-4-5-7-6-4-2-4-5-1-6 2 0 5-3 6-4l2-8v-11c-4-8-7-13-11-15h-2l-8 7-5 1c-5 0-11-2-15-6l-6-7v-9l5-6c4-2 9-3 11-2l4 5v6c-1 3-4 5-6 4l-1-2h2c3-1 4-5 2-8-1-2-2-3-4-3l-8 3-3 6-1 3 2 2 3 5 5 4c5 3 11 4 14 2 2-1 7-6 7-8l1-4-1-6c-2-10-8-18-17-23-4-2-8-3-13-3l-7 2Z" clip-rule="evenodd"/>
  <path fill="#F5EDE3" d="m843 187-5 2c-3 2-4 7-4 13l1 4 1 3c0 2-2 3-4 1l-1-1-4-3c-4-3-7-5-11-6l-7-1c-5 0-6 0-9 2s-3 3-4 5v5c0 3 2 4 4 6h6c2-1 3-5 2-7h-2l-1-1c0-2 2-2 3-1 3 1 3 4 2 7-1 4-4 5-7 5l-4-1c-3-1-4-3-5-6l-1-4v-3l-9-2-8 3a435 435 0 0 1-19 18c-3 3-5 4-8 3-3 0-4 0-7-3l-4-4-2-1-2 1-5 1-4 1-6-1-4-2-6-3 5 8c4 5 7 10 7 14s1 9 3 11 4 2 11 3a63 63 0 0 1 9 0l-1-2c-2-7 0-13 5-16l4-1 4 1c5 2 7 9 5 13l-3 4h-5l-4-3v-6c1-2 4-3 6-2s3 5 1 6c-1 2-2 1-1-1 0-2-2-4-3-3l-2 4 4 3h2c4-2 4-8 1-11s-5-3-7-2c-3 1-5 4-5 8v4c2 5 3 8 7 11a889 889 0 0 1 14 10c5 1 11-1 15-5s7-6 11-6h1l-2-2c-4-3-5-4-7-8l-1-4v-3l1-6c2-5 4-7 8-9l6-1c5 0 7 1 10 3 5 2 8 7 8 12l-1 4c-1 3-3 5-6 7l-4 1-5-1c-2-1-3-3-3-6v-3c1 0 2 0 2 2 0 4 2 5 6 5 5 0 9-4 9-9-1-3-2-7-4-8l-7-4h-10c-4 1-8 6-8 12v5l4 6 3 3 9 9 8 8c6 5 13 6 19 3l3-2c-2-3-3-7-3-12 0-10 1-13 8-18 5-3 9-5 13-4 7 0 11 3 14 9 2 5 3 8 2 13 0 4 0 5-2 7-1 2-3 3-6 4h-7c-5-2-8-8-8-15v-5c3-4 6-5 10-2l2 5c0 2 0 4-2 5l-2 1-1-1 1-1c3-1 2-6-1-8-2-1-4 0-5 3-1 2 0 7 2 11 1 3 3 4 4 5 3 1 9-1 11-2l2-6c1-5 0-8-2-13-1-3-2-4-5-6-6-3-10-3-16 1l-5 3c-3 3-4 4-4 9-1 7 0 14 3 19l13 16 11 7c4 2 9 3 14 3 10 2 15 0 19-4l5-8v-11l-1-4c-2-2-4-5-7-6-4-2-4-5-1-6 2 0 5-3 6-4l2-8v-11c-4-8-7-13-11-15h-2l-8 7-5 1c-5 0-11-2-15-6l-6-7v-9l5-6c4-2 9-3 11-2l4 5v6c-1 3-4 5-6 4l-1-2h2c3-1 4-5 2-8-1-2-2-3-4-3l-8 3-3 6-1 3 2 2 3 5 5 4c5 3 11 4 14 2 2-1 7-6 7-8l1-4-1-6c-2-10-8-18-17-23-4-2-8-3-13-3l-7 2Z"/>
</svg>
