<svg xmlns="http://www.w3.org/2000/svg" version="1.1" xmlns:xlink="http://www.w3.org/1999/xlink" xmlns:svgjs="http://svgjs.com/svgjs" width="1080" height="1080"><svg width="1080" height="1080" viewBox="0 0 1080 1080" fill="none" xmlns="http://www.w3.org/2000/svg">
<rect width="1080" height="1080" fill="white"></rect>
<path fill-rule="evenodd" clip-rule="evenodd" d="M422.98 145.933C422.327 147.985 421.222 158.564 420.527 169.442C419.024 192.914 405.744 239.866 388.96 281.051C364.078 342.106 363.428 345.078 363.553 396.899C363.643 433.433 365.07 450.83 370.145 477.303C378.223 519.44 383.419 533.215 400.016 556.472L413.172 574.909L399.61 574.951C349.179 575.106 303.128 602.944 223.193 681.593C198.894 705.497 174.735 727.194 169.508 729.805C163.467 732.823 160 736.612 160 740.203C160 745.281 162.009 745.894 179.779 746.23C193.483 746.493 216.918 751.11 256.069 761.262C307.262 774.539 314.871 775.819 336.939 774.867C359.077 773.912 363.782 772.618 388.505 760.663C403.469 753.43 415.707 747.773 415.704 748.095C415.698 748.417 411.87 758.064 407.196 769.535C388.44 815.561 372.114 838.552 351.219 848.368C344.687 851.437 340.51 855.531 339.957 859.402C338.34 870.735 347.927 872.835 401.712 872.922L451.289 873.004L472.351 862.592C488.123 854.799 499.272 846.277 516.723 828.685C541.594 803.617 559.815 780.089 559.815 773.047C559.815 761.833 565.803 777.763 576.678 817.906C596.551 891.271 606.451 915.094 623.845 931.374C631.706 938.732 632.39 938.845 658.142 936.966C682.605 935.18 689.548 932.567 689.748 925.062C689.771 924.169 682.953 914.413 674.598 903.385C655.48 878.15 636.241 842.991 622.927 808.966C612.057 781.188 587.986 701.493 589.848 699.448C590.447 698.789 602.055 709.105 615.64 722.374C647.235 753.226 657.95 758.784 696.502 764.331C709.087 766.139 720.318 765.39 742.962 761.231C780.663 754.303 790.598 754.356 819.388 761.635C832.204 764.876 844.524 766.823 846.767 765.964C852.958 763.588 851.672 755.105 843.478 744.283C839.424 738.932 831.213 724.05 825.228 711.213C810.993 680.677 800.05 665.097 777.044 642.603C758.556 624.531 735.178 610.406 718.103 606.99C713.41 606.052 709.57 604.416 709.57 603.356C709.57 602.297 717.801 595.385 727.862 587.999C762.552 562.527 795.896 523.585 808.026 494.38C816.52 473.929 842.371 402.965 842.371 400.1C842.371 398.761 846.555 385.096 851.672 369.734C856.789 354.371 860.511 339.577 859.943 336.856C858.699 330.908 850.152 330.442 841.565 335.856C838.124 338.026 825.135 342.001 812.702 344.688C772.546 353.368 705.908 371.76 683.809 380.262C658.198 390.117 636.006 405.491 620.703 423.987L609.54 437.479L604.937 416.483C590.936 352.645 574.825 325.2 514.997 263.27C471.076 217.807 456.293 197.115 444.106 164.048C438.3 148.295 435.378 143.82 430.442 143.108C426.989 142.61 423.63 143.882 422.98 145.933ZM500.281 273.758C522.999 297.194 547.705 325.61 555.187 336.904C577.147 370.05 593.962 428.559 593.951 471.776C593.94 504.14 574.715 554.025 549.847 586.211C536.923 602.935 523.784 616.164 522.004 614.243C518.362 610.313 499.524 544.562 493.613 515.14C475.428 424.651 466.649 357.036 466.598 307.1C466.578 288.833 465.634 283.34 462.297 282.06C452.334 278.237 449.619 286.134 449.619 318.919C449.619 357.417 455.089 403.42 468.296 476.014C481.082 546.28 484.704 561.758 494.927 589.765C499.513 602.336 502.722 613.164 502.058 613.83C498.478 617.408 456.406 592.876 442.815 579.282C423.426 559.894 402.757 530.906 397.307 515.456C383.343 475.884 376.028 379.968 384.385 346.039C386.491 337.492 395.521 312.062 404.453 289.528C413.387 266.994 424.209 236.122 428.504 220.923L436.311 193.292L447.644 212.218C454.598 223.825 474.953 247.625 500.281 273.758ZM833.804 365.111C833.71 370.172 817.458 418.579 798.965 468.871C793.265 484.369 785.354 501.961 781.384 507.96C769.005 526.668 733.57 561.693 709.468 579.045C674.231 604.416 621.201 622.943 583.816 622.943C560.609 622.943 560.697 620.471 584.437 604.922C638.188 569.721 679.43 531.282 720.42 478.181C741.142 451.339 758.579 433.317 774.467 422.329C781.757 417.285 779.714 408.201 771.288 408.201C757.341 408.201 735.11 428.579 705.131 468.846C681.385 500.738 636.823 544.847 602.586 570.351C586.48 582.348 572.771 591.63 572.121 590.98C571.471 590.33 575.958 580.41 582.092 568.932C595.708 543.454 609.254 505.377 612.088 484.604C613.247 476.119 615.162 467.218 616.343 464.825C617.525 462.432 620.152 456.93 622.181 452.599C629.027 437.982 657.379 411.951 676.268 402.934C696.493 393.282 761.034 373.814 798.998 365.914C831.376 359.175 833.914 359.118 833.804 365.111ZM431.527 598.423C453.397 610.708 466.496 618.945 466.533 620.434C466.555 621.383 458.313 623.008 448.218 624.042C402.992 628.676 332.328 651.973 270.225 682.717L224.988 705.116L254.656 676.021C284.355 646.898 322.438 617.283 343.661 606.806C353.525 601.935 363.539 598.804 386.044 593.552C394.84 591.5 424.938 594.724 431.527 598.423ZM731.417 630.603C760.492 644.666 791.008 680.047 810.58 722.391L819.325 741.311L795.873 739.655C779.375 738.491 764.188 739.48 744.669 742.995C709.751 749.285 683.479 747.547 663.16 737.607C649.422 730.885 624.3 707.017 579.625 658.242L564.113 641.309L575.082 640.408C587.085 639.422 618.581 645.734 645.661 654.555C664.46 660.675 714.63 685.26 750.54 705.946C776.527 720.919 785.86 722.563 785.86 712.179C785.86 706.305 779.816 701.968 742.77 681.257C700.734 657.756 663.081 640.097 645.995 635.87L637.518 633.773L647.408 629.552C674.561 617.964 706.106 618.36 731.417 630.603ZM504.452 639.467C506.317 642.484 479.974 674.591 460.822 692.635C441.544 710.798 420.315 724.773 385.646 742.119C345.023 762.443 333.851 762.87 269.357 746.561C242.478 739.765 220.227 733.009 219.91 731.551C219.594 730.093 234.092 721.32 252.127 712.058L284.915 695.215L294.225 703.047C310.738 716.943 335.023 727.488 350.504 727.488C373.072 727.488 392.102 722.091 407.928 711.207C430.756 695.503 442.134 679.205 445.658 657.163C446.672 650.834 448.955 644.445 450.732 642.97C456.084 638.529 502.022 635.534 504.452 639.467ZM543.933 671.596C548.855 732.475 549.073 741.184 546.03 755.374C542.04 773.98 532.58 787.856 504.909 815.679C474.156 846.605 455.974 855.158 417.337 856.876C379.02 858.58 376.172 856.91 389.35 840.459C399.121 828.264 415.054 797.104 431.225 758.569C435.466 748.468 442.29 736.832 446.395 732.716C450.501 728.596 466.957 711.809 482.966 695.41C498.979 679.01 511.411 667.756 510.597 670.404C509.781 673.051 507.091 684.026 504.618 694.794C493.333 743.927 478.83 774.065 453.597 800.811C434.847 820.686 431.581 829.519 442.216 831.567C449.297 832.929 472.531 810.105 487.753 786.825C500.849 766.8 511.256 740.395 520.323 704.172C528.746 670.536 537.35 645.299 539.864 646.853C541.062 647.593 542.893 658.728 543.933 671.596ZM603.301 808.016C615.66 841.016 637.809 883.713 653.502 904.792C664.516 919.586 664.525 919.626 657.447 919.626C653.542 919.626 645.368 917.634 639.284 915.198C630.078 911.517 626.79 907.835 619.726 893.3C615.055 883.69 606.109 857.393 599.848 834.859C574.062 742.062 571.081 730.848 566.953 711.058C557.716 666.773 563.653 674.973 577.826 726.076C586.014 755.603 597.48 792.476 603.301 808.016Z" fill="#521667"></path>
</svg><style>@media (prefers-color-scheme: light) { :root { filter: none; } }
@media (prefers-color-scheme: dark) { :root { filter: none; } }
</style></svg>