<?xml version="1.0" standalone="no"?>
<!DOCTYPE svg PUBLIC "-//W3C//DTD SVG 20010904//EN"
 "http://www.w3.org/TR/2001/REC-SVG-20010904/DTD/svg10.dtd">
<svg version="1.0" xmlns="http://www.w3.org/2000/svg"
 width="700.000000pt" height="700.000000pt" viewBox="0 0 700.000000 700.000000"
 preserveAspectRatio="xMidYMid meet">
<metadata>
Created by potrace 1.14, written by Peter Selinger 2001-2017
</metadata>
<g transform="translate(0.000000,700.000000) scale(0.100000,-0.100000)"
fill="#000000" stroke="none">
<path d="M2746 6061 c-3 -5 -10 -53 -16 -107 -14 -139 -18 -164 -50 -294 -37
-146 -108 -355 -199 -583 -120 -300 -116 -277 -115 -667 0 -323 1 -340 27
-475 58 -296 98 -400 216 -565 34 -47 61 -88 61 -92 0 -5 -42 -8 -94 -8 -306
0 -592 -171 -1097 -657 -221 -212 -316 -298 -384 -345 -41 -28 -50 -40 -50
-64 0 -29 1 -29 75 -37 180 -18 248 -31 543 -104 l312 -78 170 0 c194 0 185
-2 395 96 80 37 146 66 148 64 6 -5 -84 -218 -134 -316 -87 -174 -161 -262
-277 -328 -66 -38 -86 -68 -69 -105 18 -40 73 -47 402 -53 l305 -6 105 53
c142 71 206 118 337 251 169 172 273 306 273 353 0 62 35 -39 139 -404 107
-376 163 -508 256 -606 27 -29 63 -56 79 -60 16 -4 87 -2 158 4 133 11 200 32
206 63 2 9 -13 38 -33 65 -232 323 -349 547 -460 879 -63 190 -157 516 -150
523 6 6 41 -25 216 -186 96 -88 140 -121 203 -152 141 -68 322 -93 491 -66
362 57 362 57 619 2 132 -28 156 -25 156 22 0 15 -19 59 -43 97 -24 39 -81
144 -127 235 -97 188 -166 286 -285 405 -131 129 -278 221 -412 255 -24 6 -43
14 -43 19 0 4 48 46 107 92 259 201 450 426 533 626 91 218 254 691 316 918
30 109 11 140 -65 111 -83 -32 -192 -63 -391 -111 -231 -56 -531 -141 -651
-184 -170 -62 -330 -173 -435 -301 -32 -38 -59 -68 -61 -66 -2 2 -19 68 -37
147 -94 400 -180 547 -557 950 -332 355 -383 426 -483 673 -20 49 -43 97 -52
108 -18 19 -69 25 -78 9z m131 -394 c56 -96 140 -200 319 -391 338 -363 398
-436 469 -581 120 -246 197 -581 182 -794 -16 -208 -128 -491 -272 -683 -79
-104 -171 -201 -187 -196 -33 11 -166 511 -232 870 -82 445 -119 748 -132
1081 -5 135 -10 182 -21 193 -30 30 -69 6 -77 -49 -38 -251 20 -771 170 -1517
31 -154 62 -275 100 -385 57 -168 62 -195 41 -195 -39 0 -278 145 -359 218
-55 50 -185 213 -240 302 -73 118 -108 245 -143 522 -22 171 -31 513 -16 615
13 87 56 222 141 443 64 167 149 416 181 533 13 48 26 87 29 87 3 0 24 -33 47
-73z m2523 -1036 c0 -16 -33 -127 -74 -247 -140 -417 -211 -598 -272 -689 -80
-121 -359 -387 -507 -483 -152 -98 -381 -190 -567 -228 -89 -18 -262 -25 -294
-11 -18 7 -18 8 0 28 10 11 75 59 144 106 299 205 562 449 790 733 169 212
251 301 347 382 46 38 83 77 83 86 0 28 -21 42 -59 42 -88 0 -209 -115 -451
-426 -107 -137 -410 -442 -555 -558 -123 -98 -266 -198 -273 -191 -3 2 32 80
76 172 85 177 153 365 171 473 33 191 70 269 181 381 93 94 172 152 264 194
185 85 822 261 954 264 40 1 42 0 42 -28z m-2657 -1495 c65 -15 291 -145 277
-160 -3 -3 -70 -14 -148 -26 -345 -50 -765 -196 -1221 -425 -94 -47 -174 -85
-177 -85 -13 0 288 284 393 372 232 193 364 270 544 318 99 26 125 29 196 24
46 -3 107 -11 136 -18z m1927 -195 c220 -76 442 -318 595 -648 l43 -91 -186 1
c-149 2 -208 -2 -292 -18 -71 -13 -149 -19 -240 -20 -161 0 -240 20 -341 87
-66 44 -306 277 -487 475 -102 110 -103 112 -77 119 65 16 289 -22 475 -81
104 -33 334 -140 512 -236 378 -205 410 -217 416 -153 3 26 -3 37 -34 62 -102
85 -647 367 -814 423 -52 17 -96 32 -98 34 -4 3 136 55 180 66 18 4 89 7 158
5 98 -2 139 -8 190 -25z m-1403 -84 c16 -16 -135 -203 -264 -328 -94 -91 -194
-166 -326 -244 -132 -77 -311 -161 -383 -180 -86 -22 -210 -19 -348 10 -218
45 -516 129 -516 145 0 12 119 82 285 167 l131 66 63 -50 c127 -103 258 -155
388 -154 158 1 288 50 414 154 80 67 132 142 159 233 12 38 26 87 33 109 15
50 41 63 144 75 81 9 209 7 220 -3z m252 -158 c20 -168 34 -412 29 -502 -10
-170 -55 -252 -248 -451 -233 -239 -328 -285 -625 -300 -131 -7 -188 1 -193
26 -2 9 22 53 53 98 61 90 154 270 234 453 28 65 66 142 85 170 35 56 424 457
442 457 13 0 -41 -232 -85 -368 -63 -192 -135 -318 -270 -471 -112 -127 -134
-179 -85 -198 66 -25 295 235 389 440 38 84 93 255 159 494 51 185 85 272 97
251 4 -8 12 -52 18 -99z m202 -327 c90 -305 152 -503 190 -607 78 -211 220
-484 331 -636 26 -37 48 -72 48 -79 0 -19 -87 -6 -151 21 -110 48 -157 168
-368 941 -76 278 -121 480 -120 531 l1 32 14 -33 c8 -18 32 -94 55 -170z"/>
</g>
</svg>
