<svg xmlns="http://www.w3.org/2000/svg" fill="none" viewBox="0 0 255 116">
  <path fill="#725D79" fill-rule="evenodd" d="M162.375.18221c13.268.424935 13.876.527414 15.717 2.65032 2.075 2.39148 2.183 2.65386 2.183 5.30065 0 3.43922-.248 4.01882-2.739 6.39342l-2.518 2.4004-42.7.0035-42.7012.0044-2.7481 2.6804c-3.7433 3.6512-3.7903 8.5579-.1139 11.8089 2.2834 2.0187 3.5155 2.342 9.2435 2.4277 13.5937.2032 15.3717.7925 17.7857 5.8979 1.2 2.5381 1.164 3.2935-.285 5.9933-.912 1.6988-2.501 3.4887-3.532 3.9754-2.597 1.2289-101.41295 1.3544-104.85053.1326-3.03785-1.0787-5.832893-6.6709-4.951516-9.9043.329767-1.2094 2.090536-3.0867 3.913256-4.1725C7.205 33.9111 8.40114 33.8007 25.2422 33.821c10.8504.0133 18.6359-.3507 19.855-.9267 5.0085-2.3703 5.737-9.4131 1.3871-13.4266-2.3334-2.1538-3.4796-2.5019-8.2682-2.5125-7.5847-.0159-9.4333-.5848-11.381-3.5002-2.2634-3.3862-2.0615-7.92974.4707-10.62247L29.3833.623931 88.9792.18221c32.7778-.2429466 65.8068-.2429466 73.3958 0Zm69.142 64.50099c9.893.2482 18.713.7668 19.601 1.1528 2.067.8994 3.882 4.4226 3.882 7.5402 0 1.5973-1.117 3.3765-3.248 5.1708l-3.247 2.736-17.723.0336c-19.435.0362-22.271.5972-24.584 4.8633-1.679 3.0983-.82 7.7319 1.827 9.8495 1.28 1.0239 4.491 1.7811 9.333 2.1998 8.732.7562 9.425 1.0663 11.312 5.0578 1.124 2.378 1.204 3.708.36 5.969-2.341 6.271.465 5.955-53.106 5.981l-48.211.023-2.81-2.779c-3.71-3.672-3.677-7.166.105-10.91l2.914-2.8851 19.214-.4417 19.215-.4417 2.014-2.3879c2.345-2.7785 3.067-6.7522 1.526-8.3936-.591-.6299-.729-1.145-.307-1.145s-.445-.9938-1.927-2.2086c-2.051-1.6803-3.821-2.2209-7.392-2.2607-2.582-.0283-27.191-.038-54.687-.0221-47.7767.0274-50.1341-.0468-53.1859-1.6882-3.8263-2.0567-4.9085-5.1673-3.3736-9.6967.7924-2.3367 1.9846-3.6592 3.9472-4.3783 2.9969-1.0973 142.9293-1.8323 178.5513-.9382Z" clip-rule="evenodd"/>
</svg>
